<svg width="93" height="93" viewBox="0 0 93 93" fill="none" xmlns="http://www.w3.org/2000/svg">
<g clip-path="url(#clip0_568_313)">
<path d="M69.1073 49.7343V17.4702H57.7988V51.8001C57.9 51.7708 58.0208 51.7316 58.0991 51.7087C61.7348 50.201 65.8436 49.8289 69.1073 49.7343Z" fill="#121212"/>
<path d="M52.1494 53.0501V4.62128H40.8442V53.0533C42.5185 53.3014 44.444 53.4874 46.4968 53.4874C48.5464 53.4874 50.4621 53.3014 52.1494 53.0501Z" fill="#121212"/>
<path d="M86.0646 37.1693H74.7627V49.7375C77.8925 49.8387 82.158 50.2401 86.0646 51.8001V37.1693Z" fill="#121212"/>
<path d="M35.1914 51.8099V23.6351H23.8862V49.731C27.1596 49.8257 31.3207 50.2206 35.1424 51.7936C35.1522 51.8001 35.1783 51.8067 35.1914 51.8099Z" fill="#121212"/>
<path d="M18.2339 34.7706H6.92871V51.7969C10.8353 50.2401 15.1008 49.8322 18.2339 49.7342V34.7706Z" fill="#121212"/>
<path d="M72.028 52.9652C68.8656 52.9652 63.5687 52.9717 59.0943 54.8157C57.642 55.2856 52.5736 56.751 46.5 56.751C40.4166 56.751 35.3482 55.2791 33.8992 54.8157C29.4215 52.9685 24.1279 52.9685 20.9687 52.9685C14.6928 52.9685 0 52.9685 0 67.41C0 78.973 9.40574 88.3787 20.9687 88.3787C32.5317 88.3787 41.9375 78.973 41.9375 67.41C41.9375 66.4929 41.8755 65.6378 41.7645 64.8317C42.959 64.3487 44.4994 63.8885 46.2585 63.8885C48.2232 63.8885 49.979 64.4629 51.2159 65.0112C51.1213 65.7618 51.0593 66.5614 51.0593 67.4067C51.0593 78.9697 60.465 88.3754 72.028 88.3754C83.591 88.3754 93 78.9697 93 67.4067C93 52.9652 78.3072 52.9652 72.028 52.9652ZM20.9687 83.4833C12.1048 83.4833 4.89542 76.274 4.89542 67.41C4.89542 60.4519 9.25235 57.8639 20.9687 57.8639C32.6851 57.8639 37.042 60.4519 37.042 67.41C37.042 76.2707 29.8327 83.4833 20.9687 83.4833ZM72.028 83.4833C63.1608 83.4833 55.9514 76.274 55.9514 67.41C55.9514 60.4519 60.3116 57.8639 72.028 57.8639C83.7444 57.8639 88.1046 60.4519 88.1046 67.41C88.1046 76.2707 80.8952 83.4833 72.028 83.4833Z" fill="#121212"/>
</g>
<defs>
<clipPath id="clip0_568_313">
<rect width="93" height="93" fill="white"/>
</clipPath>
</defs>
</svg>
