<svg width="81" height="81" viewBox="0 0 81 81" fill="none" xmlns="http://www.w3.org/2000/svg">
<circle cx="40.5" cy="40.5" r="40.5" fill="#FFAF2A"/>
<path d="M61.9289 33.2986C61.6292 32.8874 61.1511 32.6439 60.6422 32.6439H21.3575C20.8484 32.6439 20.3702 32.8875 20.0706 33.2992C18.7741 35.0811 18 38.2272 18 41.7153C18 49.9015 22.4019 57.5384 29.4879 61.6463C29.7304 61.787 30.0058 61.861 30.2861 61.861H51.7143C51.9947 61.861 52.27 61.7869 52.5125 61.6463C59.5982 57.5384 63.9999 49.9011 63.9999 41.7153C64 38.2259 63.2258 35.0795 61.9289 33.2986ZM51.2774 58.6776H30.7229C24.8279 55.09 21.1832 48.6296 21.1832 41.7152C21.1832 39.3845 21.5937 37.1872 22.2577 35.8269H59.7423C60.4063 37.1865 60.8168 39.3837 60.8168 41.7152C60.8167 48.6296 57.172 55.0898 51.2774 58.6776Z" fill="white"/>
<path d="M44.2014 39.319C43.5793 39.94 43.5785 40.9479 44.1994 41.5698C45.9643 43.3378 45.9644 46.2132 44.2 47.9794C43.345 48.8349 42.2087 49.3058 41.0001 49.3058C39.7916 49.3058 38.6552 48.8349 37.8009 47.9799C36.0363 46.2131 36.0365 43.3377 37.8012 41.5698C38.4224 40.9476 38.4213 39.9399 37.7991 39.3189C37.1769 38.6978 36.1692 38.6986 35.5484 39.3211C32.5456 42.3293 32.5457 47.2229 35.5489 50.2298C37.0046 51.6867 38.9407 52.4892 41.0001 52.4892C43.0595 52.4892 44.9953 51.687 46.4519 50.2295C49.4552 47.2229 49.4555 42.3294 46.4522 39.3209C45.8314 38.699 44.8236 38.6979 44.2014 39.319Z" fill="white"/>
<path d="M22.6496 30.5746H31.8261C32.7051 30.5746 33.4177 29.862 33.4177 28.9831C33.4177 28.1042 32.7049 27.3915 31.8261 27.3915H22.6496C21.7707 27.3915 21.0581 28.1043 21.0581 28.9831C21.058 29.8621 21.7707 30.5746 22.6496 30.5746Z" fill="white"/>
<path d="M36.4128 27.3914C35.5339 27.3914 34.8213 28.1042 34.8213 28.9829C34.8213 29.8621 35.5341 30.5745 36.4128 30.5745H45.5875C46.4665 30.5745 47.179 29.8618 47.179 28.9829C47.179 28.104 46.4662 27.3914 45.5875 27.3914H36.4128Z" fill="white"/>
<path d="M48.5825 28.9829C48.5825 29.8621 49.2953 30.5745 50.1742 30.5745H59.3496C60.2285 30.5745 60.9411 29.8618 60.9411 28.9829C60.9411 28.104 60.2283 27.3914 59.3496 27.3914H50.1742C49.2952 27.3914 48.5825 28.1041 48.5825 28.9829Z" fill="white"/>
<path d="M44.0583 25.3223H53.2343C54.1133 25.3223 54.8258 24.6096 54.8258 23.7307C54.826 22.8518 54.1132 22.139 53.2343 22.139H44.0583C43.1794 22.139 42.4668 22.8518 42.4668 23.7306C42.4668 24.6097 43.1794 25.3223 44.0583 25.3223Z" fill="white"/>
<path d="M28.766 25.3223H37.9412C38.8202 25.3223 39.5327 24.6096 39.5327 23.7307C39.5327 22.8518 38.8201 22.139 37.9412 22.139H28.766C27.8869 22.139 27.1743 22.8518 27.1743 23.7306C27.1742 24.6097 27.887 25.3223 28.766 25.3223Z" fill="white"/>
</svg>
