<svg width="162" height="147" viewBox="0 0 162 147" fill="none" xmlns="http://www.w3.org/2000/svg">
<g clip-path="url(#clip0_589_213)">
<path d="M96.9114 39.6554C96.0778 47.9362 94.1752 55.2889 90.8139 62.3578C93.7121 63.915 96.0739 62.515 98.8603 61.0614C98.6403 62.6071 98.5361 63.7769 98.3045 64.9199C97.3899 69.4305 95.7382 73.5882 92.5544 77.0593C91.991 77.673 91.6784 78.6204 91.5163 79.468C91.1226 81.5315 89.9803 83.0082 88.1164 83.8175C86.6807 84.4389 86.4376 85.4092 86.3334 86.8284C86.044 90.6907 86.044 94.6835 84.9943 98.3618C82.5399 106.976 75.8365 111.176 67.5277 113.01C56.7838 115.376 48.695 110.708 41.9762 102.853C41.4783 102.27 40.996 101.668 40.5367 101.054C39.7687 100.03 38.8271 99.6927 37.515 99.9113C31.2631 100.955 25.1734 102.393 20.0021 106.34C19.5506 106.685 19.018 106.934 18.5125 107.203C18.4237 107.249 18.2693 107.176 17.8525 107.114C18.69 101.507 21.3721 96.8276 25.0344 92.4282C20.0175 88.5467 14.7228 85.6394 7.78398 85.7736C10.0609 80.4883 15.0276 78.7048 19.4425 75.6862C11.2649 72.8287 5.93158 66.6881 0.00390625 61.2877C0.0579346 61.1151 0.111963 60.9425 0.165991 60.7699C3.67011 60.5628 7.18195 60.4324 10.6784 60.1294C13.1637 59.9146 15.6258 59.4581 18.1034 59.1206C19.4078 58.9442 19.8207 58.2116 19.5737 56.9727C18.2771 50.4101 15.7184 44.7221 9.45114 41.2548C6.66868 39.7167 4.14093 37.7261 1.51284 35.9464C10.744 30.8989 20.0831 32.8742 29.4378 35.0527C31.1203 25.5867 29.6307 17.325 22.306 10.54C25.2158 9.2589 27.7667 9.76902 30.2482 10.1027C37.1792 11.0309 42.9333 14.3985 48.1045 18.9014C50.0843 20.6235 52.0486 22.3649 54.2522 24.3056C58.065 17.1332 54.6304 11.4758 50.559 5.58447C57.1273 5.83762 62.3024 8.11591 66.6748 12.2659C70.9894 16.3584 73.2586 21.6016 75.0801 27.7576C76.9441 23.8722 78.6537 20.5391 78.2678 16.5042C80.564 17.3864 83.7208 23.1089 84.6354 28.985C85.3532 33.5914 85.3069 38.3129 85.6156 43.1917C89.4864 43.8974 93.141 42.4821 96.9191 39.6592L96.9114 39.6554ZM77.0791 47.8941C75.4776 43.8706 73.4747 40.411 70.3951 37.6762C66.7867 34.4736 62.5687 32.9355 57.683 33.1733C43.5198 33.8599 32.7798 44.8256 31.8497 59.2855C31.3287 67.413 32.2125 75.3333 34.2231 83.1846C36.365 91.5461 39.6838 99.2746 46.2483 105.243C52.7432 111.146 60.0757 113.827 68.8939 111.153C76.3922 108.879 81.9648 104.694 83.9793 96.8046C85.1757 92.1099 85.3377 87.3308 84.6817 82.5403C84.2533 79.4182 83.6629 76.3152 83.1303 73.1164C76.7048 76.1311 74.9875 76.4686 72.9769 74.8386C75.1843 74.3668 77.1679 74.0983 79.0473 73.5C81.0772 72.8518 82.5013 71.4863 82.7984 69.0354C81.9957 69.5762 81.3744 70.0288 80.7222 70.4315C76.508 73.0205 70.6073 72.66 66.7945 69.5877C63.2054 66.6958 61.9551 61.6636 63.8345 56.8538C66.1153 51.0123 70.4221 47.9017 77.0907 47.8979L77.0791 47.8941ZM74.3044 70.6003C80.4829 70.5658 84.7357 66.013 84.701 59.4773C84.6701 53.7317 80.591 49.3324 75.3348 49.3669C69.7737 49.4052 64.2474 55.4654 64.3516 61.4027C64.4481 66.8377 68.5542 70.631 74.3044 70.6003ZM32.7451 84.1512C29.8468 85.6164 29.2216 88.1593 30.8155 91.0705C32.0504 93.3257 34.1382 94.3076 35.9019 93.3104C34.8599 90.288 33.8102 87.2388 32.7451 84.1512ZM86.1983 82.7627C89.0811 81.9228 90.5746 79.9206 90.154 77.7305C89.687 75.2835 87.3754 73.5268 84.8515 73.803C85.2914 76.7371 85.7314 79.6636 86.1983 82.7666V82.7627Z" fill="white"/>
<path d="M124.084 61.0576C135.951 59.9836 145.178 65.3956 152.997 73.9066C153.726 74.7005 154.459 75.5865 154.868 76.5608C157.361 82.4674 159.8 88.5736 159.287 94.9981C158.782 101.296 157.635 107.648 154.305 113.32C153.807 114.172 153.687 115.503 153.931 116.477C154.976 120.635 151.619 124.769 147.362 124.056C145.054 123.669 143.353 124.175 141.5 125.487C133.346 131.255 124.431 131.531 115.219 128.62C105.394 125.517 98.5979 119.258 95.4295 109.358C95.0127 108.062 94.3296 107.053 92.8477 106.842C90.7445 106.539 89.4902 105.304 89.1159 103.271C88.6682 100.817 88.5023 98.2314 90.729 96.5706C92.4116 95.3164 92.647 94.0047 91.9755 92.3055C90.4589 88.4509 91.4584 85.2252 93.909 81.9918C95.8077 79.4873 97.004 76.4687 98.6712 73.7723C99.4855 72.4529 100.489 71.1297 101.704 70.1976C104.039 68.4064 106.621 66.9451 109.037 65.2575C113.494 62.1392 118.322 60.3557 124.08 61.0576H124.084ZM125.639 128.781C141.473 129.495 152.927 115.054 153.097 99.0867C153.255 83.7984 140.941 72.0042 124.968 71.9351C108.975 71.8661 95.6417 84.9068 95.634 100.625C95.6263 116.619 108.562 128.758 125.639 128.785V128.781ZM94.1637 105.254V96.6167C91.1574 97.2495 90.0498 98.987 90.4975 102.128C90.8409 104.533 91.8868 105.442 94.1637 105.254ZM145.942 122.061C148.373 123.109 150.704 122.414 151.87 120.504C153.004 118.644 152.63 116.511 150.801 115.05C149.207 117.348 147.625 119.634 145.942 122.061Z" fill="white"/>
<path d="M132.705 40.9326C133.604 41.5616 134.758 42.0142 135.356 42.8542C136.896 45.0174 138.22 47.3417 139.574 49.6354C139.991 50.3411 140.13 51.2156 140.57 51.9022C140.836 52.3126 141.419 52.6769 141.898 52.7306C142.122 52.7536 142.558 52.0249 142.677 51.58C142.963 50.5022 143.113 49.3899 143.349 48.128C145.603 49.317 146.764 50.9778 147.142 53.0528C147.27 53.747 146.834 54.9054 146.266 55.2927C144.688 56.3744 144.734 57.4215 145.734 58.8099C147.038 60.6279 148.377 62.4421 149.477 64.3829C150.006 65.3149 150.017 66.5385 150.264 67.6278L149.601 67.9039C149.006 67.2749 148.339 66.7034 147.829 66.0092C146.675 64.4328 145.614 62.795 144.495 61.1956C143.256 59.4274 141.979 57.6823 140.74 55.9103C139.648 54.3492 138.803 52.535 136.823 51.9175C136.642 52.0364 136.46 52.1553 136.275 52.2742C137.861 55.4884 139.443 58.7025 140.96 61.7709C139.15 61.1381 136.738 60.8811 136.051 58.0351C135.947 57.6056 135.079 57.1568 134.515 57.0724C132.188 56.7349 131.887 56.3552 132.586 54.2035C132.705 53.8391 132.798 53.467 132.906 53.0988C133.693 50.4178 133.658 48.2469 130.841 46.379C128.78 45.0097 127.337 42.6969 125.705 40.7293C123.486 38.0521 120.391 36.9897 117.392 35.7201C117.203 35.9157 117.014 36.1113 116.825 36.3069C117.342 36.9321 117.786 37.6379 118.392 38.1633C122.505 41.7342 126.75 45.1862 128.908 50.4101C129.047 50.7438 129.089 51.1159 129.224 51.6797C128.09 51.5186 127.117 51.3767 126.079 51.2309C125.168 55.3618 129.359 56.2248 130.903 58.8674C128.626 58.8674 126.546 58.9211 124.474 58.8137C124.119 58.7946 123.632 58.1234 123.505 57.6708C123.177 56.5086 123.223 55.2122 122.741 54.1306C122.116 52.7306 121.375 51.2079 120.244 50.2414C118.233 48.5231 117.299 46.636 117.774 44.0278C118.102 42.2136 117.732 40.4301 116.184 39.3715C112.109 36.5946 109.89 32.3564 107.204 28.4902C105.444 25.9587 103.113 24.647 100.049 24.8042C99.335 24.8426 98.648 25.4217 97.9457 25.7554C98.3779 26.2541 98.8063 26.7603 99.2539 27.2474C99.3813 27.3817 99.5627 27.4968 99.744 27.5466C104.232 28.7855 106.015 32.7476 108.385 36.0922C108.902 36.8247 109.103 37.7798 109.465 38.6696C106.93 39.2219 103.765 37.4538 102.141 34.7842C101.909 34.4045 101.631 34.0095 101.546 33.5876C101.11 31.4704 99.8444 30.6956 97.6948 30.7416C95.1594 30.7915 93.334 29.1805 91.4198 27.7269C89.8762 26.5571 88.0508 25.7554 86.3682 24.7659C86.0209 24.5588 85.6041 24.2979 85.4536 23.9566C84.6817 22.2268 83.9832 20.4586 83.223 18.6137C85.2297 17.8082 87.0976 18.046 88.8573 18.9205C91.5626 20.263 94.291 20.5468 97.2665 19.9139C98.567 19.6378 100.026 20.075 101.407 20.2285C102.156 20.3128 102.897 20.4778 103.715 20.3895C99.91 18.7211 96.5487 15.8483 92.1068 15.9634C88.2746 16.0631 84.5582 15.7486 80.919 14.4829C77.9012 13.4319 75.1264 14.3333 72.4945 16.0171C71.5529 14.7628 70.6807 13.6007 69.5615 12.1087C73.7603 11.3301 77.6851 10.5975 81.6137 9.86872C81.741 9.84571 81.9147 9.8764 81.988 9.80736C83.9369 7.86659 85.9398 8.67588 88.1202 9.43531C89.2394 9.82653 90.6827 9.60407 91.9061 9.32792C93.6774 8.92902 95.1787 9.22819 96.6529 10.2139C98.4088 11.3876 100.277 12.404 101.986 13.6467C102.739 14.1914 103.183 15.1426 103.815 15.8675C104.348 16.4773 104.869 17.1485 105.537 17.5704C107.32 18.7019 109.288 19.5764 110.978 20.8191C112.294 21.7857 113.575 22.9977 114.397 24.3823C115.841 26.8025 117.844 28.168 120.56 28.4173C122.756 28.6167 124.215 29.7137 125.419 31.432C126.26 32.6325 127.16 33.8407 128.252 34.7996C128.761 35.2445 129.988 35.4593 130.548 35.1563C132.061 34.3317 133.296 33.741 134.446 35.6127C135.684 37.6302 135.588 38.2937 133.6 39.9622C133.458 40.0811 133.357 40.2422 133.234 40.3841C133.056 40.5682 132.879 40.7523 132.705 40.9364V40.9326Z" fill="white"/>
<path d="M18.3002 109.769C20.7739 108.246 23.0971 106.815 25.3895 105.408C27.5892 107.21 27.7821 110.693 30.6804 111.702L31.3943 111.291C30.9968 110.144 30.6418 108.978 30.1903 107.855C29.7233 106.685 29.1599 105.557 28.6119 104.349C30.1594 103.321 31.0123 103.908 31.6567 105.166C32.938 107.667 34.2501 110.152 35.485 112.676C36.3726 114.486 37.596 115.821 39.6491 116.346C40.4325 116.546 41.1657 117.033 41.8488 117.497C42.856 118.184 43.1918 119.066 42.1768 120.032C40.8956 121.252 41.5246 122.015 42.7673 122.652C43.2805 122.917 43.7861 123.216 44.3302 123.392C45.9935 123.925 46.9004 124.815 46.6496 126.756C46.5608 127.462 47.078 128.551 47.6723 128.977C49.9067 130.584 52.2492 132.053 54.6342 133.43C55.3674 133.856 56.367 133.829 57.324 134.024C57.3665 133.391 57.3742 133.138 57.4012 132.885C57.5131 131.857 56.5792 130.384 58.2811 129.997C59.9599 129.614 61.7158 129.744 62.6921 131.481C63.3443 132.64 63.7496 133.936 64.2667 135.167C65.4167 137.906 66.8639 138.558 69.5344 137.365C71.0781 136.675 72.4906 136.713 73.9377 137.545C74.8794 138.086 75.8558 138.573 76.8283 139.068C78.3333 139.835 79.7342 139.966 81.0116 138.562C81.9339 137.542 83.1033 137.4 84.3575 137.956C85.9204 138.65 87.3715 138.381 89.0039 137.91C90.563 137.457 92.4386 137.365 93.9977 137.783C96.2746 138.393 98.1424 138.263 99.879 136.667C101.508 135.167 103.449 134.719 105.652 134.454C108.412 134.124 111.14 133.284 113.795 132.394C115.717 131.75 117.461 131.316 119.553 131.804C125.049 133.081 130.517 132.728 135.846 130.78C136.132 130.676 136.437 130.63 137.108 130.469C135.827 133.039 134.164 134.673 131.706 135.359C126.712 136.755 121.703 138.109 116.682 139.413C112.483 140.499 108.578 142.14 104.935 144.526C101.504 146.774 97.6407 147.311 93.55 146.846C87.2982 146.137 80.9884 145.845 74.7713 144.929C62.4027 143.107 51.1494 138.52 41.6018 130.335C33.9105 123.741 26.3735 116.968 18.771 110.271C18.5857 110.106 18.4352 109.903 18.3117 109.769H18.3002Z" fill="white"/>
<path d="M61.0289 5.79158C64.5292 4.23819 67.9793 2.85741 71.2827 1.20046C74.6711 -0.498669 78.1173 0.0267964 81.6523 0.27994C90.1695 0.889788 98.6982 1.35772 107.227 1.80264C110.631 1.97907 113.911 2.6081 116.744 4.4875C120.425 6.93073 124.088 9.44299 127.48 12.2621C129.251 13.7311 130.61 15.8023 131.814 17.8082C133.531 20.6695 135.603 23.0591 138.421 24.8963C144.865 29.1038 150.477 34.2434 155.285 40.2384C158.149 43.8092 159.565 47.9055 159.65 52.4545C159.685 54.2418 159.704 56.0407 159.596 57.8242C159.349 61.8246 159.565 65.7522 161.213 69.4727C162.93 73.3427 161.34 77.136 161.031 80.9562C160.927 82.2833 160.58 83.5912 160.24 85.4936C159.588 83.5145 159.013 82.0723 158.643 80.5765C157.689 76.7486 155.864 73.4731 152.912 70.7997C152.491 70.4162 152.221 69.4228 152.41 68.8935C153.498 65.8251 153.39 62.8794 151.878 59.9951C150.99 58.3075 151.669 57.2834 153.305 56.7771C154.857 56.2977 155.03 55.4577 154.212 54.2111C153.653 53.3558 153.159 52.4506 152.537 51.6413C151.194 49.8923 150.496 48.1088 150.963 45.7807C151.156 44.8103 150.535 43.2109 149.74 42.5972C146.467 40.0849 143.955 37.0395 141.971 33.461C141.55 32.7054 140.474 32.3103 139.702 31.7504C139.76 32.7284 139.613 33.7755 139.918 34.6692C140.466 36.2801 141.288 37.799 142.044 39.4636C140.234 40.2383 139.355 39.2565 138.714 38.0444C137.425 35.6204 136.205 33.158 135.001 30.6879C134.122 28.8776 132.902 27.5006 130.857 26.9866C130.367 26.8639 129.9 26.6108 129.448 26.373C127.399 25.3029 127.271 24.5779 128.773 22.7791C128.931 22.5873 129.047 22.361 129.39 21.8164C128.14 21.1221 126.974 20.4087 125.755 19.8104C124.369 19.1277 123.37 18.4258 124.03 16.5732C124.223 16.0286 123.736 14.8702 123.204 14.5097C120.661 12.7799 118.037 11.1575 115.362 9.64244C113.772 8.74109 113.016 9.36244 113.12 11.2572C113.232 13.3092 112.518 13.8999 110.515 13.4703C108.879 13.1174 107.709 12.2698 107.177 10.6435C106.918 9.85722 106.644 9.07094 106.336 8.3C105.243 5.56145 103.692 4.84037 100.956 5.97952C99.3234 6.6584 97.8801 6.62005 96.3982 5.67268C95.6456 5.19324 94.7928 4.86722 94.0132 4.42997C92.3345 3.48643 90.7715 3.31 89.3166 4.87105C88.3595 5.90281 87.2288 5.68802 85.9437 5.43487C84.5776 5.16639 83.003 5.05132 81.7179 5.46939C79.8424 6.08308 78.0864 6.29787 76.2881 5.55761C74.1347 4.67161 72.3016 5.01297 70.6498 6.6469C70.1559 7.13401 69.523 7.49455 68.9171 7.85125C67.3117 8.79095 65.7911 9.08629 64.1857 7.66331C63.2634 6.84634 62.0323 6.37074 61.0289 5.79158Z" fill="white"/>
<path d="M69.3531 114.989C69.5731 114.782 69.6078 114.732 69.6541 114.709C73.4168 112.634 76.863 112.611 79.8423 116.158C80.3208 116.726 81.0695 117.079 81.714 117.493C84.427 119.242 85.1988 119.235 87.742 117.282C88.8342 116.446 89.9418 116.001 91.2963 116.55C91.4738 116.623 91.6668 116.649 91.8559 116.692C95.2404 117.397 97.9958 118.801 100.311 121.67C102.469 124.343 105.579 126.261 108.304 128.536C105.799 130.097 103.302 132.31 99.5511 131.907C97.9572 131.735 96.2515 132.214 94.6461 132.605C91.8057 133.296 89.0233 134.212 86.1791 134.876C85.4535 135.045 84.5929 134.554 83.7825 134.465C82.1038 134.289 80.3942 133.955 78.7347 134.097C76.7974 134.266 75.0724 134.193 73.4477 132.973C72.1201 131.976 70.6536 131.167 69.2489 130.269C68.0333 129.491 66.6092 128.954 66.4201 127.17C66.3738 126.737 65.7255 126.292 65.2624 125.993C63.6994 124.984 62.121 124.002 60.504 123.082C58.5166 121.95 56.8456 120.581 55.7341 118.506C54.5957 116.385 52.5271 115.307 50.2348 115.039C47.7727 114.751 46.0553 113.616 44.7702 111.606C44.3612 110.961 43.8402 110.386 43.3578 109.784C41.5517 107.529 41.4706 107.471 38.8618 108.771C37.6578 109.37 36.8744 108.902 36.2299 108.012C35.4156 106.884 34.8329 105.699 35.8749 104.345C36.3109 103.777 36.4923 102.945 37.0249 102.554C37.461 102.236 38.391 102.14 38.8464 102.397C39.4716 102.75 39.8575 103.524 40.3476 104.115C46.2251 111.188 53.407 115.744 62.9662 115.794C63.5219 115.794 64.232 116.116 64.6025 116.527C66.3622 118.467 68.6044 118.686 70.974 118.414C71.4602 118.356 71.9002 117.873 72.3594 117.585C72.0622 117.137 71.85 116.592 71.4525 116.266C70.8698 115.79 70.1597 115.472 69.3454 114.992L69.3531 114.989ZM66.7868 123.066C69.9821 124.493 73.027 125.943 76.153 127.197C77.1139 127.581 78.3257 127.627 79.3715 127.477C82.2427 127.059 84.9557 127.45 87.7034 128.313C89.3822 128.843 91.2191 129.207 92.9558 129.115C95.0744 129 97.2857 128.543 98.401 126.035C97.7334 125.636 97.1738 125.042 96.5564 124.976C94.044 124.712 91.443 124.167 89.0117 124.558C85.9437 125.049 83.1342 125.322 80.2282 123.902C78.9663 123.285 77.3879 123.154 75.9407 123.097C72.9653 122.982 69.986 123.062 66.7868 123.062V123.066Z" fill="white"/>
<path d="M109.114 62.4268C109.114 61.046 109.075 59.8378 109.126 58.6296C109.172 57.4636 108.578 56.9995 107.501 56.9995C106.729 56.9995 105.957 57.011 105.189 57.0762C101.878 57.3601 100.99 56.4817 101.237 52.8418C102.276 52.9569 103.298 53.072 104.375 53.1947C104.904 51.5378 104.128 50.6786 102.557 50.6786C100.906 50.6786 100.022 50.0573 99.8636 48.4272C99.8443 48.2431 99.7826 48.0474 99.69 47.8863C98.7509 46.3163 98.4846 44.3769 98.8911 42.0679C101.643 42.252 104.464 42.2635 107.211 42.7199C108.072 42.8618 109.114 44.0854 109.4 45.0174C109.971 46.8776 110.963 48.1433 112.684 48.9948C113.413 49.3554 114 49.9997 114.66 50.5022C116.172 51.649 116.632 53.0988 115.979 54.8862C115.937 55.0051 115.868 55.1278 115.868 55.2505C115.752 59.4428 112.865 61.1419 109.122 62.4268H109.114Z" fill="white"/>
<path d="M8.42073 87.4496C11.1028 88.117 13.7155 88.3778 15.9229 89.4556C17.3007 90.1268 18.0455 92.0523 19.1068 93.387C20.4189 95.0401 19.4386 96.4209 18.7671 97.9666C17.4898 100.912 16.4246 103.954 15.29 106.907C9.4627 102.051 8.5751 95.1667 8.41687 87.4458L8.42073 87.4496Z" fill="white"/>
<path d="M48.0466 15.9404C45.6231 14.3295 43.2883 12.78 40.8724 11.1767C42.8406 9.15541 45.1754 7.79764 47.9579 7.30669C48.4518 7.21848 49.2584 7.51381 49.5478 7.90887C50.5667 9.28582 51.4195 10.7855 52.3959 12.3312C50.86 13.6084 49.4359 14.786 48.0466 15.9443V15.9404Z" fill="white"/>
<path d="M17.7252 57.2605C15.0431 57.6172 12.9823 57.8895 10.524 58.2193C11.6818 54.66 12.7238 51.4535 13.7657 48.2432L14.4604 48.1243C15.5024 51.0393 16.5443 53.9542 17.7252 57.2605Z" fill="white"/>
<path d="M14.7228 76.0199C12.7701 77.4007 11.0103 78.6434 8.97266 80.0855C9.26595 77.6461 9.52838 75.4369 9.81781 73.0205C11.5815 74.0983 13.0942 75.0265 14.7228 76.0199Z" fill="white"/>
<path d="M53.6425 20.9341C52.2686 19.7298 51.2459 18.8361 50.0226 17.7583C51.2884 17.16 52.3265 16.6729 53.6425 16.0515V20.9341Z" fill="white"/>
<path d="M75.4235 21.9774C74.8408 20.6848 74.4356 19.7873 73.9069 18.6213C74.7404 18.7748 75.327 18.8822 76.1529 19.0317C75.9175 19.9791 75.7207 20.7807 75.4235 21.9774Z" fill="white"/>
<path d="M74.3044 70.6003C68.5543 70.6348 64.452 66.8377 64.3517 61.4027C64.2436 55.4654 69.7738 49.4053 75.3348 49.3669C80.591 49.3324 84.6702 53.7317 84.701 59.4773C84.7358 66.0092 80.483 70.5658 74.3044 70.6003ZM74.5591 57.6593C73.8375 58.6604 73.0811 59.2549 73.1197 59.7918C73.1583 60.3211 73.9996 60.7929 74.4897 61.2877C74.9798 60.8006 75.8018 60.3557 75.8635 59.8187C75.9253 59.2894 75.2152 58.6757 74.5591 57.6593Z" fill="#6FFF00"/>
<path d="M72.4597 43.8705C69.8625 44.02 67.3463 44.3422 64.8417 44.277C57.5711 44.0852 50.8407 45.7077 44.7432 49.7235C43.9945 50.2144 43.2343 50.759 42.4007 51.0314C41.4513 51.342 40.4132 51.3766 39.4137 51.5338C39.8459 50.6248 40.0543 49.4818 40.7412 48.8451C45.7582 44.1735 52.01 42.1368 58.6015 40.9938C62.1287 40.384 65.6907 39.6514 69.2952 40.6333C70.7926 41.0398 72.0699 41.6382 72.4636 43.8781L72.4597 43.8705Z" fill="white"/>
<path d="M49.05 77.7689C42.7441 77.7689 38.0861 73.2468 38.0823 67.1253C38.0784 60.0258 44.1605 53.6396 50.9294 53.6396C57.1388 53.6396 62.3448 59.0247 62.3603 65.4684C62.3796 72.3224 56.4866 77.7689 49.05 77.7689ZM48.942 76.2692C55.5797 76.2922 60.8706 71.5323 60.8745 65.5297C60.8745 59.8532 56.394 55.1547 50.9564 55.1355C45.0558 55.1163 39.6337 60.7699 39.6259 66.9566C39.6182 72.3877 43.4851 76.25 48.9458 76.2692H48.942Z" fill="white"/>
<path d="M57.2006 90.99C58.1036 94.4649 55.1128 95.5772 53.9975 97.6944C53.8817 97.9131 52.7162 97.821 52.2223 97.5449C51.7978 97.3071 51.5083 96.6282 51.381 96.095C50.9951 94.4764 50.2001 93.4754 48.2782 93.8589C49.8759 91.2776 59.9753 88.5889 66.5243 89.0223C70.4993 89.2832 74.4009 89.939 77.3879 93.0458C74.1732 92.2327 70.9971 91.0437 67.7322 90.7061C64.4056 90.3609 60.9903 90.8519 57.1967 90.9938L57.2006 90.99Z" fill="white"/>
<path d="M64.1972 76.1809C65.0771 77.6461 65.93 79.1266 66.8446 80.5688C67.5663 81.7079 68.3767 83.104 69.9782 82.3638C71.6107 81.612 71.0048 80.1545 70.5417 78.8581C69.8586 76.9404 69.1832 75.0188 68.5928 73.0703C68.4809 72.6983 68.7626 72.2073 68.8629 71.7739C69.191 72.0808 69.6927 72.3301 69.8161 72.7021C70.5996 75.0533 71.3482 77.4236 71.9966 79.817C72.1895 80.5266 72.2667 81.4778 71.9387 82.0608C71.4138 82.9928 70.6304 84.0246 69.7042 84.4081C69.1524 84.6382 67.848 83.9133 67.3463 83.2613C65.9493 81.4471 64.7722 79.4603 63.572 77.5003C63.3829 77.1935 63.545 76.6757 63.545 76.2576C63.7611 76.2308 63.9772 76.2078 64.1933 76.1809H64.1972Z" fill="white"/>
<path d="M55.2903 78.8812C52.9902 80.3847 50.2579 81.3206 47.6028 81.4318C45.1368 81.5315 42.7364 80.2083 40.6641 78.7585C40.7297 78.6012 40.7953 78.4439 40.8609 78.2867C43.1957 78.7738 45.5343 79.6521 47.8653 79.6445C50.2657 79.6329 52.6622 78.7585 55.0587 78.2637C55.1359 78.4708 55.2131 78.6779 55.2903 78.885V78.8812Z" fill="white"/>
<path d="M48.0698 97.4567C45.9898 97.0731 45.2681 95.677 45.0829 93.997C44.8899 92.2404 45.133 90.5719 47.4717 89.7856C45.847 92.5204 46.5262 95.0096 48.0698 97.4567Z" fill="white"/>
<path d="M79.3136 90.1653C81.1582 91.1855 80.9691 92.6392 80.425 93.997C79.8693 95.3893 78.974 96.5859 76.6392 96.8122C78.1442 94.5186 80.1201 92.8693 79.3136 90.1691V90.1653Z" fill="white"/>
<path d="M74.559 57.6592C75.2151 58.6756 75.9213 59.2931 75.8634 59.8186C75.8017 60.3517 74.9797 60.8005 74.4896 61.2876C73.9995 60.789 73.1582 60.3172 73.1196 59.7917C73.081 59.2548 73.8374 58.6641 74.559 57.6592Z" fill="white"/>
<path d="M115.088 106.627C120.699 106.926 125.45 108.587 128.699 112.891C129.965 114.567 130.54 116.887 130.996 119.004C131.312 120.481 130.44 121.916 128.915 122.548C127.518 123.128 126.299 122.598 125.257 121.555C124.08 120.378 122.81 119.288 121.672 118.076C120.07 116.362 118.11 115.905 115.887 116.239C113.984 116.527 112.093 116.868 110.195 117.171C108.477 117.443 106.787 117.417 105.618 115.913C104.425 114.379 105.016 112.73 105.691 111.199C106.876 108.518 109.268 107.498 111.954 107.003C113.085 106.796 114.247 106.727 115.084 106.631L115.088 106.627ZM121.278 109.377C120.788 110.574 120.248 111.794 121.683 112.216C122.355 112.415 123.324 111.613 124.161 111.268C124.092 111.061 124.026 110.854 123.956 110.651C123.115 110.252 122.274 109.853 121.278 109.377ZM117.079 108.365C116.894 108.533 116.705 108.698 116.52 108.867C116.987 109.546 117.454 110.221 117.917 110.9C118.596 110.359 119.275 109.822 119.954 109.281C119.85 109.113 119.742 108.944 119.638 108.775C118.785 108.637 117.932 108.503 117.083 108.365H117.079ZM112.834 108.303C112.757 108.545 112.68 108.79 112.603 109.032C113.197 109.308 113.83 109.857 114.37 109.776C114.791 109.715 115.092 108.867 115.447 108.372C115.3 108.246 115.154 108.123 115.007 107.996L112.838 108.303H112.834ZM125.45 111.778C125.265 111.847 125.076 111.916 124.89 111.985C124.975 112.63 124.848 113.477 125.215 113.853C125.485 114.133 126.395 113.8 127.017 113.738C127.044 113.527 127.067 113.32 127.094 113.109C126.546 112.664 125.998 112.219 125.45 111.778Z" fill="white"/>
<path d="M139.679 85.789C145.718 85.766 151.129 90.8864 151.156 96.6512C151.183 102.834 146.336 107.617 140.018 107.628C133.77 107.644 128.475 102.539 128.429 96.4556C128.383 90.5642 133.4 85.812 139.679 85.7852V85.789ZM139.497 87.3385C134.307 87.3232 129.942 91.4387 129.934 96.352C129.927 101.599 134.561 106.125 139.999 106.179C145.201 106.232 149.597 102.036 149.647 96.9734C149.701 91.6727 145.155 87.3577 139.493 87.3385H139.497Z" fill="white"/>
<path d="M115.47 99.6276C109.172 99.6199 104.051 94.6337 104.082 88.5429C104.113 82.5135 108.944 77.7996 115.092 77.8035C121.394 77.8073 126.704 82.8932 126.77 88.984C126.831 94.9521 121.857 99.6391 115.47 99.6276ZM115.435 98.1969C120.773 98.3273 125.045 94.2962 125.207 88.984C125.357 83.9441 120.622 79.4336 115.022 79.2878C110.175 79.1612 105.764 83.2767 105.618 88.0596C105.452 93.5521 109.816 98.0627 115.435 98.2007V98.1969Z" fill="white"/>
<path d="M126.639 103.87C126.017 102.815 125.4 101.76 124.647 100.479C126.453 100.675 127.491 101.595 127.854 102.964C128.066 103.762 127.87 104.963 127.356 105.561C126.982 105.998 125.705 106.01 124.991 105.757C123.393 105.189 121.676 104.671 120.568 103.294C120.653 103.11 120.738 102.922 120.823 102.738C122.61 103.356 124.396 103.969 126.183 104.587L126.639 103.87Z" fill="white"/>
<path d="M113.618 75.6823C115.219 73.4807 121.537 73.918 125.149 76.9902C121.07 76.53 117.33 76.1042 113.618 75.6823Z" fill="white"/>
<path d="M148.454 86.8859C145.07 85.0832 141.836 83.3611 138.598 81.6389C140.732 80.0971 147.752 83.7408 148.454 86.8859Z" fill="white"/>
<path d="M48.942 76.2653C43.4812 76.2462 39.6144 72.3838 39.6221 66.9527C39.6298 60.766 45.0519 55.1125 50.9526 55.1316C56.3902 55.1508 60.8745 59.8493 60.8706 65.5259C60.8668 71.5285 55.5759 76.2883 48.9381 76.2653H48.942ZM51.9212 65.8404C50.941 65.0963 50.3313 64.3024 49.9029 64.3906C49.2777 64.5171 48.7799 65.2766 48.228 65.7675C48.7336 66.2508 49.189 67.0371 49.7601 67.133C50.2464 67.2174 50.8715 66.5078 51.9212 65.8442V65.8404Z" fill="#6FFF00"/>
<path d="M121.278 109.377C122.274 109.849 123.115 110.252 123.956 110.651C124.026 110.858 124.091 111.065 124.161 111.268C123.327 111.617 122.355 112.415 121.683 112.216C120.248 111.79 120.788 110.57 121.278 109.377Z" fill="#6FFF00"/>
<path d="M117.079 108.365C117.932 108.503 118.785 108.637 119.634 108.775C119.738 108.944 119.846 109.113 119.951 109.281C119.271 109.822 118.592 110.359 117.913 110.9C117.446 110.221 116.979 109.546 116.516 108.867C116.701 108.698 116.89 108.534 117.076 108.365H117.079Z" fill="#6FFF00"/>
<path d="M112.834 108.303L115.003 107.997C115.15 108.123 115.296 108.246 115.443 108.372C115.088 108.871 114.787 109.715 114.366 109.776C113.826 109.857 113.193 109.308 112.599 109.032C112.676 108.791 112.753 108.545 112.83 108.303H112.834Z" fill="#6FFF00"/>
<path d="M125.45 111.778C125.998 112.223 126.546 112.668 127.094 113.109C127.067 113.32 127.044 113.527 127.017 113.738C126.392 113.8 125.485 114.129 125.215 113.853C124.848 113.477 124.975 112.63 124.89 111.985C125.076 111.916 125.265 111.847 125.45 111.778Z" fill="#6FFF00"/>
<path d="M139.497 87.3423C145.155 87.3615 149.701 91.6765 149.651 96.9771C149.601 102.04 145.205 106.236 140.003 106.182C134.565 106.129 129.927 101.603 129.938 96.3558C129.946 91.4425 134.311 87.327 139.501 87.3423H139.497ZM140.562 100.203C141.199 99.2056 141.894 98.6034 141.836 98.0818C141.778 97.5486 140.983 97.0922 140.512 96.6013C139.999 97.1267 139.185 97.5985 139.073 98.1968C138.992 98.6456 139.818 99.2593 140.559 100.203H140.562Z" fill="#6FFF00"/>
<path d="M115.435 98.2007C109.816 98.0626 105.452 93.552 105.618 88.0596C105.76 83.2767 110.175 79.1612 115.022 79.2878C120.622 79.4335 125.357 83.9441 125.207 88.9839C125.045 94.3 120.773 98.3311 115.435 98.1968V98.2007ZM114.918 86.8667C114.293 87.933 113.618 88.5697 113.699 89.0875C113.78 89.6015 114.652 90.3762 115.127 90.3417C115.613 90.3072 116.377 89.448 116.4 88.9226C116.423 88.4048 115.671 87.8525 114.918 86.8706V86.8667Z" fill="#6FFF00"/>
<path d="M51.9212 65.8405C50.8716 66.5079 50.2502 67.2136 49.7601 67.1293C49.189 67.0334 48.7336 66.2509 48.228 65.7638C48.7799 65.2729 49.2777 64.5173 49.9029 64.3869C50.3313 64.2986 50.9372 65.0926 51.9212 65.8367V65.8405Z" fill="white"/>
<path d="M140.559 100.203C139.818 99.2593 138.992 98.6456 139.073 98.1969C139.181 97.5985 139.999 97.1268 140.512 96.6013C140.983 97.0923 141.774 97.5487 141.836 98.0818C141.894 98.6035 141.199 99.2056 140.562 100.203H140.559Z" fill="white"/>
<path d="M114.918 86.863C115.671 87.8449 116.419 88.3972 116.4 88.915C116.377 89.4404 115.617 90.2996 115.127 90.3341C114.652 90.3686 113.78 89.5939 113.699 89.0799C113.618 88.5621 114.293 87.9254 114.918 86.8591V86.863Z" fill="white"/>
</g>
<defs>
<clipPath id="clip0_589_213">
<rect width="162" height="147" fill="white"/>
</clipPath>
</defs>
</svg>
