<svg width="25" height="25" viewBox="0 0 25 25" fill="none" xmlns="http://www.w3.org/2000/svg">
<path d="M10.6679 9.96762L8.63583 12.5077L10.6679 15.0477M14.732 9.96762L16.764 12.5077L14.732 15.0477M8.53422 20.6359C10.4734 21.6306 12.7041 21.9001 14.8243 21.3956C16.9446 20.8912 18.8149 19.6461 20.0984 17.8847C21.3818 16.1232 21.9939 13.9613 21.8244 11.7885C21.6549 9.61568 20.7149 7.57485 19.1738 6.03377C17.6328 4.49268 15.5919 3.55269 13.4191 3.38318C11.2463 3.21367 9.08437 3.82579 7.32294 5.10924C5.5615 6.39268 4.31639 8.26304 3.81196 10.3833C3.30754 12.5035 3.57698 14.7342 4.57172 16.6734L2.53967 22.6679L8.53422 20.6359Z" stroke="white" stroke-width="1.52404" stroke-linecap="round" stroke-linejoin="round"/>
</svg>
