<svg width="25" height="25" viewBox="0 0 25 25" fill="none" xmlns="http://www.w3.org/2000/svg">
<path d="M12.2809 13.5238V21.652M12.2809 21.652L8.21676 17.5879M12.2809 21.652L16.345 17.5879M4.55195 15.8292C3.72213 15.1033 3.07244 14.1944 2.65419 13.1742C2.23594 12.1541 2.06058 11.0507 2.14196 9.9512C2.22335 8.85168 2.55924 7.78613 3.12313 6.83871C3.68701 5.89128 4.46344 5.08793 5.3911 4.49209C6.31876 3.89625 7.37224 3.52423 8.46835 3.40543C9.56446 3.28662 10.6732 3.42428 11.707 3.80752C12.7407 4.19077 13.6713 4.80911 14.4251 5.61371C15.1788 6.41832 15.7352 7.38715 16.0503 8.4437H17.869C18.8566 8.44358 19.8178 8.76327 20.6086 9.35493C21.3994 9.9466 21.9773 10.7784 22.256 11.726C22.5346 12.6735 22.4989 13.6858 22.1543 14.6113C21.8096 15.5369 21.1745 16.3259 20.344 16.8605" stroke="white" stroke-width="1.52404" stroke-linecap="round" stroke-linejoin="round"/>
</svg>
