<svg width="28" height="30" viewBox="0 0 28 30" fill="none" xmlns="http://www.w3.org/2000/svg">
<g clip-path="url(#clip0_627_462)">
<path d="M9.36532 23.2483C9.36532 23.365 9.23548 23.4583 9.07177 23.4583C8.88548 23.4758 8.75565 23.3825 8.75565 23.2483C8.75565 23.1317 8.88548 23.0383 9.04919 23.0383C9.21855 23.0208 9.36532 23.1142 9.36532 23.2483ZM7.60968 22.9858C7.57016 23.1025 7.68306 23.2367 7.85242 23.2717C7.99919 23.33 8.16855 23.2717 8.20242 23.155C8.23629 23.0383 8.12903 22.9042 7.95968 22.8517C7.8129 22.8108 7.64919 22.8692 7.60968 22.9858ZM10.1048 22.8867C9.94113 22.9275 9.82823 23.0383 9.84516 23.1725C9.8621 23.2892 10.0089 23.365 10.1782 23.3242C10.3419 23.2833 10.4548 23.1725 10.4379 23.0558C10.421 22.945 10.2685 22.8692 10.1048 22.8867ZM13.8194 0.533325C5.98952 0.533325 0 6.67583 0 14.7667C0 21.2358 3.94032 26.7717 9.56855 28.72C10.2911 28.8542 10.5452 28.3933 10.5452 28.0142C10.5452 27.6525 10.5282 25.6575 10.5282 24.4325C10.5282 24.4325 6.57661 25.3075 5.74677 22.6942C5.74677 22.6942 5.10323 20.9967 4.17742 20.5592C4.17742 20.5592 2.88468 19.6433 4.26774 19.6608C4.26774 19.6608 5.67339 19.7775 6.44677 21.1658C7.68306 23.4175 9.75484 22.77 10.5621 22.385C10.6919 21.4517 11.0589 20.8042 11.4653 20.4192C8.30968 20.0575 5.12581 19.585 5.12581 13.9733C5.12581 12.3692 5.55484 11.5642 6.45806 10.5375C6.31129 10.1583 5.83145 8.59499 6.60484 6.57666C7.78468 6.19749 10.5 8.15166 10.5 8.15166C11.629 7.82499 12.8427 7.65583 14.0452 7.65583C15.2476 7.65583 16.4613 7.82499 17.5903 8.15166C17.5903 8.15166 20.3056 6.19166 21.4855 6.57666C22.2589 8.60083 21.779 10.1583 21.6323 10.5375C22.5355 11.57 23.0887 12.375 23.0887 13.9733C23.0887 19.6025 19.7637 20.0517 16.6081 20.4192C17.1274 20.88 17.5677 21.755 17.5677 23.1258C17.5677 25.0917 17.5508 27.5242 17.5508 28.0025C17.5508 28.3817 17.8105 28.8425 18.5274 28.7083C24.1726 26.7717 28 21.2358 28 14.7667C28 6.67583 21.6492 0.533325 13.8194 0.533325ZM5.4871 20.6525C5.41371 20.7108 5.43065 20.845 5.52661 20.9558C5.61694 21.0492 5.74677 21.09 5.82016 21.0142C5.89355 20.9558 5.87661 20.8217 5.78065 20.7108C5.69032 20.6175 5.56048 20.5767 5.4871 20.6525ZM4.87742 20.18C4.8379 20.2558 4.89435 20.3492 5.00726 20.4075C5.09758 20.4658 5.21048 20.4483 5.25 20.3667C5.28952 20.2908 5.23306 20.1975 5.12016 20.1392C5.00726 20.1042 4.91694 20.1217 4.87742 20.18ZM6.70645 22.2567C6.61613 22.3325 6.65 22.5075 6.77984 22.6183C6.90968 22.7525 7.07339 22.77 7.14677 22.6767C7.22016 22.6008 7.18629 22.4258 7.07339 22.315C6.94919 22.1808 6.77984 22.1633 6.70645 22.2567ZM6.0629 21.3992C5.97258 21.4575 5.97258 21.6092 6.0629 21.7433C6.15323 21.8775 6.30564 21.9358 6.37903 21.8775C6.46935 21.8017 6.46935 21.65 6.37903 21.5158C6.3 21.3817 6.15323 21.3233 6.0629 21.3992Z" fill="white"/>
</g>
<defs>
<clipPath id="clip0_627_462">
<rect width="28" height="29.8667" fill="white" transform="translate(0 0.0666504)"/>
</clipPath>
</defs>
</svg>
