<svg width="50" height="50" viewBox="0 0 50 50" fill="none" xmlns="http://www.w3.org/2000/svg">
<path d="M25.1861 49.9361C24.4749 49.9361 23.811 49.7527 23.1947 49.4321L16.8887 45.8126C15.9405 45.3085 16.4146 45.1253 16.6991 45.0335C17.9792 44.6213 18.2163 44.5297 19.5439 43.7965C19.6861 43.7049 19.8758 43.7507 20.018 43.8423L24.8542 46.6372C25.0439 46.7288 25.2808 46.7288 25.4232 46.6372L44.3409 36.0534C44.5306 35.9618 44.6255 35.7786 44.6255 35.5494V14.4276C44.6255 14.1985 44.5306 14.0153 44.3409 13.9236L25.4232 3.38565C25.2335 3.29403 24.9964 3.29403 24.8542 3.38565L5.9363 13.9236C5.74666 14.0153 5.65183 14.2444 5.65183 14.4276V35.5494C5.65183 35.7328 5.74666 35.9618 5.9363 36.0534L11.1043 38.9399C13.9017 40.3144 15.656 38.7109 15.656 37.1072V16.2603C15.656 15.9854 15.8931 15.7105 16.225 15.7105H18.643C18.9275 15.7105 19.212 15.9396 19.212 16.2603V37.1072C19.212 40.7268 17.1732 42.8345 13.6172 42.8345C12.5267 42.8345 11.6733 42.8345 9.25524 41.689L4.27684 38.9399C3.0441 38.2527 2.28549 36.9698 2.28549 35.5952V14.4735C2.28549 13.0989 3.0441 11.8161 4.27684 11.1288L23.1947 0.544986C24.38 -0.096457 25.9922 -0.096457 27.1774 0.544986L46.0953 11.1288C47.328 11.8161 48.0866 13.0989 48.0866 14.4735V35.5952C48.0866 36.9698 47.328 38.2527 46.0953 38.9399L27.1774 49.5237C26.5611 49.7985 25.8498 49.9361 25.1861 49.9361ZM31.0178 35.412C22.7205 35.412 21.0137 31.7466 21.0137 28.6311C21.0137 28.3561 21.2507 28.0813 21.5828 28.0813H24.0481C24.3327 28.0813 24.5696 28.2645 24.5696 28.5393C24.9489 30.9676 26.0394 32.159 31.0653 32.159C35.0481 32.159 36.7548 31.2884 36.7548 29.2267C36.7548 28.0355 36.2808 27.1648 30.0697 26.5692C24.9017 26.0652 21.6775 24.9656 21.6775 20.9796C21.6775 17.2683 24.9017 15.0691 30.3066 15.0691C36.3755 15.0691 39.3625 17.085 39.7419 21.4834C39.7419 21.621 39.6944 21.7584 39.5997 21.8958C39.5047 21.9874 39.3625 22.0791 39.2204 22.0791H36.7548C36.5179 22.0791 36.2808 21.8958 36.2333 21.6668C35.6643 19.1468 34.1945 18.3221 30.3066 18.3221C25.9447 18.3221 25.4232 19.7883 25.4232 20.8878C25.4232 22.2167 26.0394 22.6289 31.9188 23.3621C37.7506 24.0951 40.5005 25.149 40.5005 29.0891C40.453 33.1211 37.0394 35.412 31.0178 35.412Z" fill="white"/>
</svg>
