<svg width="50" height="50" viewBox="0 0 50 50" fill="none" xmlns="http://www.w3.org/2000/svg">
<path d="M40.4715 17.4306C39.9564 17.2578 39.4413 17.0945 38.9262 16.9409C39.0121 16.5855 39.0884 16.2302 39.1647 15.8749C40.3379 10.1516 39.5653 5.55182 36.9613 4.03457C34.4527 2.58453 30.3606 4.09218 26.2209 7.72208C25.8108 8.07738 25.4102 8.4519 25.0286 8.82641C24.7711 8.57674 24.504 8.32706 24.2369 8.08699C19.8969 4.20742 15.5473 2.57493 12.9433 4.10179C10.4442 5.56143 9.70022 9.89233 10.7495 15.3084C10.8544 15.8461 10.9688 16.3743 11.1024 16.912C10.4919 17.0849 9.89099 17.277 9.32822 17.4786C4.23465 19.2552 0.581398 22.0592 0.581398 24.9593C0.581398 27.9554 4.47311 30.9611 9.76699 32.7856C10.1962 32.9297 10.6255 33.0737 11.0642 33.1986C10.9212 33.7747 10.7972 34.3413 10.6827 34.9271C9.68114 40.2567 10.4633 44.482 12.9624 45.932C15.5378 47.43 19.8683 45.8936 24.0843 42.1773C24.4182 41.8796 24.752 41.5723 25.0858 41.2458C25.5055 41.6587 25.9443 42.0524 26.3831 42.4365C30.4656 45.9704 34.5004 47.4012 36.9899 45.9512C39.5653 44.4531 40.4047 39.911 39.3173 34.3797C39.2315 33.9572 39.1361 33.5251 39.0312 33.0833C39.3364 32.9969 39.6321 32.9009 39.9278 32.8048C45.4315 30.9707 49.4186 28.0034 49.4186 24.9593C49.4186 22.0496 45.6604 19.2263 40.4715 17.4306ZM27.5659 9.27775C31.1142 6.16641 34.4241 4.94684 35.9311 5.82071C37.5432 6.75219 38.1632 10.5165 37.1521 15.462C37.0853 15.7885 37.0185 16.1054 36.9327 16.4223C34.8151 15.9422 32.669 15.5965 30.5133 15.4044C29.2733 13.6183 27.9188 11.9089 26.4499 10.3053C26.8219 9.94995 27.1843 9.61385 27.5659 9.27775ZM16.5298 29.9432C17.0163 30.7786 17.5123 31.6141 18.0369 32.4303C16.5489 32.2671 15.0704 32.027 13.611 31.7101C14.0307 30.3273 14.5553 28.8965 15.1658 27.4368C15.6046 28.2819 16.0529 29.1173 16.5298 29.9432ZM13.6396 18.3909C15.0132 18.0836 16.4726 17.8339 17.9892 17.6419C17.4837 18.4389 16.9876 19.2552 16.5203 20.081C16.0529 20.8972 15.595 21.7327 15.1658 22.5778C14.5649 21.1469 14.0593 19.7449 13.6396 18.3909ZM16.2532 25.0073C16.8827 23.6821 17.5695 22.3857 18.2944 21.1085C19.0194 19.8313 19.8015 18.5926 20.6218 17.373C22.0526 17.2674 23.512 17.2097 25 17.2097C26.488 17.2097 27.9569 17.2674 29.3782 17.373C30.189 18.583 30.9616 19.8217 31.696 21.0893C32.4305 22.3569 33.1173 23.6533 33.7659 24.9689C33.1268 26.2941 32.44 27.6001 31.7056 28.8869C30.9807 30.164 30.208 31.4028 29.3973 32.632C27.976 32.7376 26.4976 32.7856 25 32.7856C23.5025 32.7856 22.0526 32.7376 20.6504 32.6512C19.8206 31.4316 19.0384 30.1832 18.304 28.9061C17.5695 27.6289 16.8923 26.3325 16.2532 25.0073ZM33.4797 29.924C33.9662 29.0789 34.4241 28.2243 34.8724 27.36C35.4828 28.7524 36.017 30.164 36.4844 31.6141C35.0059 31.9502 33.5084 32.2095 32.0013 32.3823C32.5164 31.5757 33.0028 30.7498 33.4797 29.924ZM34.8533 22.5778C34.405 21.7327 33.9471 20.8876 33.4702 20.0618C33.0028 19.2455 32.5164 18.4389 32.0108 17.6419C33.5465 17.8339 35.0154 18.0932 36.389 18.4101C35.9502 19.8313 35.4351 21.2141 34.8533 22.5778ZM25.0191 11.7745C26.0206 12.8692 26.9649 14.0216 27.8425 15.2123C25.9539 15.1259 24.0557 15.1259 22.1671 15.2123C23.1018 13.9736 24.0652 12.8212 25.0191 11.7745ZM13.9544 5.88793C15.5569 4.94684 19.1147 6.29125 22.8634 9.63305C23.1018 9.84432 23.3403 10.0748 23.5883 10.3053C22.1098 11.9089 20.7458 13.6183 19.4963 15.4044C17.3406 15.5965 15.2039 15.9326 13.0864 16.4031C12.9624 15.9133 12.8575 15.414 12.7525 14.9146C11.8559 10.2668 12.4473 6.76179 13.9544 5.88793ZM11.6175 31.2012C11.2168 31.0859 10.8258 30.9611 10.4347 30.8266C8.40298 30.1832 6.09466 29.1653 4.42542 27.8305C3.46203 27.1583 2.81341 26.1212 2.63218 24.9593C2.63218 23.2019 5.64635 20.9549 9.99591 19.428C10.5396 19.2359 11.0928 19.0631 11.6461 18.8998C12.2947 20.9837 13.0769 23.0291 13.983 25.0073C13.0673 27.0143 12.2756 29.0885 11.6175 31.2012ZM22.7394 40.612C21.1655 42.062 19.3437 43.2144 17.3596 44.0018C16.3009 44.5108 15.0799 44.5588 13.9926 44.1266C12.4759 43.2432 11.8464 39.8534 12.7049 35.292C12.8098 34.7542 12.9242 34.2165 13.0578 33.6883C15.1944 34.1492 17.3501 34.4661 19.5344 34.6294C20.7935 36.4251 22.1766 38.144 23.6551 39.7573C23.3498 40.055 23.0446 40.3431 22.7394 40.612ZM25.0763 38.2785C24.1034 37.2222 23.1305 36.0506 22.1861 34.7926C23.1018 34.831 24.0462 34.8503 25 34.8503C25.9825 34.8503 26.9459 34.831 27.8997 34.783C27.0222 36.0026 26.0779 37.1645 25.0763 38.2785ZM37.5432 41.1593C37.4573 42.3309 36.885 43.4256 35.9693 44.1651C34.4527 45.0485 31.2191 43.8962 27.728 40.8809C27.3274 40.5352 26.9268 40.1607 26.5166 39.7765C27.976 38.1536 29.321 36.4347 30.5419 34.6294C32.7262 34.4469 34.901 34.1108 37.0472 33.6211C37.1425 34.0148 37.2284 34.4085 37.3047 34.7926C37.7721 36.8669 37.8484 39.0275 37.5432 41.1593ZM39.2792 30.8362C39.0121 30.9227 38.745 31.0091 38.4684 31.0859C37.8007 28.9925 36.9804 26.9471 36.0361 24.9593C36.9518 23.0003 37.7244 20.9837 38.373 18.9191C38.869 19.0631 39.3459 19.2167 39.8038 19.3704C44.2487 20.9068 47.3678 23.1923 47.3678 24.9401C47.3678 26.8222 44.0389 29.2518 39.2792 30.8362ZM25 29.3958C27.4132 29.3958 29.3686 27.4272 29.3686 24.9977C29.3686 22.5681 27.4132 20.5996 25 20.5996C22.5868 20.5996 20.6314 22.5681 20.6314 24.9977C20.6314 27.4272 22.5868 29.3958 25 29.3958Z" fill="white"/>
</svg>
