<svg width="50" height="50" viewBox="0 0 50 50" fill="none" xmlns="http://www.w3.org/2000/svg">
<path d="M35.08 34.4898C36.866 34.3118 38.25 32.8158 38.25 30.9978C38.25 30.9258 38.248 30.8538 38.244 30.7818V30.7918C38.15 28.8658 36.576 27.3398 34.642 27.3198H34.512C32.576 27.3918 31.034 28.9778 31.034 30.9238C31.034 30.9678 31.034 31.0118 31.036 31.0578V31.0518C31.088 31.9978 31.476 32.8458 32.08 33.4858L32.078 33.4838C29.704 37.9118 26.076 41.4038 21.67 43.5458L21.532 43.6058C19.148 44.9258 16.304 45.7018 13.278 45.7018C12.512 45.7018 11.756 45.6518 11.018 45.5558L11.106 45.5658C8.38402 45.3038 6.04002 43.8778 4.55202 41.7978L4.53402 41.7698C3.46002 40.2598 2.81802 38.3798 2.81802 36.3478C2.81802 34.6738 3.25402 33.1018 4.02002 31.7378L3.99602 31.7858C5.09002 29.7138 6.58202 27.9898 8.38402 26.6618L8.42602 26.6338C8.08402 25.7278 7.77802 24.6358 7.56202 23.5138L7.54002 23.3818C-1.82598 30.0798 -0.875982 39.2418 1.96802 43.5718C4.45402 46.7438 8.28602 48.7638 12.59 48.7638C12.786 48.7638 12.98 48.7598 13.174 48.7518H13.146C13.216 48.7538 13.3 48.7538 13.384 48.7538C14.678 48.7538 15.936 48.6038 17.144 48.3218L17.032 48.3438C25.048 46.8758 31.612 41.7098 34.98 34.7158L35.044 34.5678L35.08 34.4898Z" fill="white"/>
<path d="M45.1697 26.5976C40.3637 21.1176 33.3497 17.6776 25.5297 17.6776C25.2917 17.6776 25.0517 17.6816 24.8157 17.6876H24.8517H23.7757C23.2097 16.5536 22.0557 15.7876 20.7237 15.7876C20.6837 15.7876 20.6457 15.7876 20.6057 15.7896H20.6117H20.5337C18.6017 15.8176 17.0457 17.3896 17.0457 19.3256C17.0457 19.3836 17.0477 19.4396 17.0497 19.4956V19.4876C17.1397 21.4136 18.7137 22.9436 20.6497 22.9636H20.8077C22.2357 22.9076 23.4417 22.0196 23.9617 20.7756L23.9697 20.7516H25.1397C30.2477 20.7576 34.9877 22.3256 38.9077 25.0076L38.8237 24.9536C41.8857 26.9136 44.2497 29.7296 45.6077 33.0636L45.6497 33.1796C46.1697 34.2636 46.4717 35.5356 46.4717 36.8776C46.4717 38.2976 46.1337 39.6376 45.5317 40.8216L45.5537 40.7716C43.9997 43.9436 40.7957 46.0876 37.0917 46.0876C36.9557 46.0876 36.8217 46.0856 36.6877 46.0796H36.7077C34.4337 46.0316 32.2877 45.5316 30.3417 44.6656L30.4457 44.7076C29.6877 45.3396 28.4237 46.3796 27.5057 47.0136C29.9337 48.2056 32.7817 48.9316 35.7917 49.0016H35.8157C35.9337 49.0056 36.0717 49.0076 36.2097 49.0076C41.3137 49.0076 45.7837 46.2976 48.2617 42.2396L48.2977 42.1776C48.9817 40.5556 49.3777 38.6716 49.3777 36.6936C49.3777 32.7336 47.7857 29.1456 45.2077 26.5356L45.2097 26.5376L45.1797 26.6016L45.1697 26.5976Z" fill="white"/>
<path d="M13.688 35.632C13.776 37.56 15.354 39.094 17.294 39.108H17.422C19.358 39.042 20.904 37.454 20.904 35.508C20.904 33.528 19.306 31.92 17.328 31.906H17.194C17.174 31.904 17.15 31.904 17.128 31.904C16.982 31.904 16.842 31.926 16.71 31.97L16.72 31.968C14.58 28.486 13.314 24.268 13.314 19.754C13.314 19.026 13.346 18.306 13.412 17.596L13.406 17.688C13.588 13.876 14.988 10.422 17.22 7.674L17.196 7.706C19.178 5.564 21.97 4.2 25.084 4.1H25.102C31.926 3.972 34.772 12.476 34.992 15.856L38.156 16.802C37.42 6.44 30.976 1 24.814 1C18.55 1.326 13.352 5.54 11.57 11.262L11.542 11.366C10.666 13.89 10.158 16.798 10.158 19.824C10.158 25 11.64 29.83 14.2 33.912L14.136 33.802C13.85 34.234 13.68 34.764 13.68 35.334C13.68 35.44 13.686 35.544 13.698 35.646L13.696 35.634L13.688 35.632Z" fill="white"/>
</svg>
