<svg width="51" height="52" viewBox="0 0 51 52" fill="none" xmlns="http://www.w3.org/2000/svg">
<path d="M27.583 23.9754H22.9046C22.9046 28.0263 22.8863 32.0521 22.8863 36.108C22.9412 36.6583 22.9712 37.2988 22.9712 37.9461C22.9712 39.3009 22.8363 40.6239 22.5782 41.9017L22.5998 41.7746C21.9136 43.2146 20.1432 43.0306 19.3404 42.7781C18.5893 42.3733 17.9947 41.7595 17.6233 41.0136L17.6133 40.9901C17.54 40.8329 17.4518 40.6991 17.3468 40.5787L17.3485 40.5804L13.5495 42.932C14.1608 44.2533 15.1051 45.3304 16.2759 46.0847L16.3059 46.1031C17.5767 46.8173 19.0956 47.2371 20.7112 47.2371C21.5173 47.2371 22.3 47.1317 23.0445 46.936L22.9812 46.9511C24.6267 46.5363 25.9675 45.4625 26.7352 44.0342L26.7502 44.0024C27.3481 42.4737 27.6929 40.7025 27.6929 38.851C27.6929 38.202 27.6496 37.5631 27.568 36.9359L27.5763 37.0095C27.6013 32.7161 27.5763 28.421 27.5763 24.0941L27.583 23.9754ZM46.2798 39.1186C45.9151 36.8305 44.4311 34.9071 40.0292 33.1142C38.497 32.3933 36.7948 31.8915 36.2885 30.7308C36.1836 30.4665 36.1236 30.1604 36.1236 29.841C36.1236 29.6336 36.1486 29.4329 36.1969 29.2405L36.1936 29.2573C36.54 28.3374 37.4111 27.6934 38.4304 27.6934C38.7618 27.6934 39.0766 27.7604 39.3614 27.8824L39.3464 27.8758C40.2657 28.1935 40.9919 28.8692 41.37 29.7356L41.3783 29.7574C43.5301 28.3441 43.5301 28.3441 45.0307 27.4058C44.671 26.7886 44.2663 26.2534 43.8082 25.7717L43.8116 25.775C42.5341 24.4136 40.7271 23.5673 38.7218 23.5673C38.437 23.5673 38.1556 23.584 37.8807 23.6175L37.9141 23.6141L36.4468 23.7998C35.0211 24.1243 33.8036 24.8685 32.8943 25.8938L32.8893 25.9005C31.9982 27.0127 31.4586 28.4411 31.4586 29.9965C31.4586 32.1357 32.4795 34.0357 34.0568 35.2333L34.0734 35.245C36.9148 37.3775 41.0685 37.8458 41.5998 39.8528C42.0994 42.2981 39.7894 43.0825 37.5077 42.7998C35.9138 42.4352 34.608 41.4116 33.8702 40.0368L33.8552 40.0084L30.0463 42.2044C30.4943 43.1009 31.0572 43.8669 31.7301 44.5209L31.7317 44.5225C35.3525 48.1921 44.4062 48.0048 46.0317 42.4235C46.2199 41.8147 46.3281 41.1156 46.3281 40.3914C46.3281 39.8896 46.2765 39.3996 46.1766 38.9279L46.1849 38.9747L46.2798 39.1186ZM0.420418 0.919434H50.3703V51.0806H0.420418V0.919434Z" fill="white"/>
</svg>
