<svg width="51" height="50" viewBox="0 0 51 50" fill="none" xmlns="http://www.w3.org/2000/svg">
<path d="M25.7907 0.0175781C12.0154 0.0175781 0.808273 11.2247 0.808273 25C0.808273 38.7753 12.0154 49.9825 25.7907 49.9825C39.566 49.9825 50.7731 38.7753 50.7731 25C50.7731 11.2247 39.566 0.0175781 25.7907 0.0175781ZM25.7907 3.76494C37.5 3.76494 47.0258 13.2907 47.0258 25C47.0258 32.3099 43.313 38.7654 37.6744 42.5878L20.4722 17.0808C20.0138 16.3975 19.1548 16.0993 18.3716 16.3367C17.5847 16.579 17.0469 17.3067 17.0469 18.1299V34.3684C17.0469 35.4027 17.8863 36.2421 18.9205 36.2421C19.9548 36.2421 20.7942 35.4027 20.7942 34.3684V24.2584L34.3809 44.4029C31.7502 45.5708 28.8486 46.2351 25.7907 46.2351C14.0814 46.2351 4.55564 36.7093 4.55564 25C4.55564 13.2908 14.0814 3.76494 25.7907 3.76494ZM32.6609 13.7579C31.6266 13.7579 30.7872 14.5973 30.7872 15.6316V26.2321L34.5346 31.6067V15.6316C34.5346 14.5973 33.6952 13.7579 32.6609 13.7579Z" fill="white"/>
</svg>
