<svg width="50" height="50" viewBox="0 0 50 50" fill="none" xmlns="http://www.w3.org/2000/svg">
<g clip-path="url(#clip0_586_151)">
<mask id="mask0_586_151" style="mask-type:luminance" maskUnits="userSpaceOnUse" x="4" y="0" width="41" height="51">
<path d="M44.6601 0.391113H4.85425V50.2634H44.6601V0.391113Z" fill="white"/>
</mask>
<g mask="url(#mask0_586_151)">
<path d="M40.2234 17.782C39.1054 16.2281 36.5346 13.0332 32.5858 8.28685C30.8716 6.22815 29.4012 4.48071 28.6774 3.6228C28.2782 3.14957 27.9358 2.74465 27.6655 2.42452L27.2347 1.91585L27.0011 1.64001L26.9556 1.57294L26.9353 1.56409L25.9387 0.391113L24.6754 1.40592C21.4504 3.99355 18.8089 7.32899 17.0392 11.0465C15.954 13.2584 15.2454 15.4209 14.874 17.6479C14.7767 18.1489 14.6933 18.6639 14.6239 19.1802C14.1905 19.1447 13.7497 19.122 13.3126 19.1119C13.276 19.1094 13.2393 19.1081 13.1901 19.1068C11.5896 19.0511 9.99785 19.2422 8.46054 19.6762L7.80241 19.8609L7.46388 20.4557C5.87722 23.2432 4.97905 26.4167 4.86663 29.6319C4.72135 33.8076 5.857 37.8491 8.15107 41.3199C10.3958 44.7149 13.5665 47.3101 17.3208 48.8247L17.8098 49.0221L17.9575 49.074L17.9638 49.0715C19.9194 49.7825 21.9721 50.1799 24.0653 50.2521C24.3028 50.2609 24.539 50.2646 24.7752 50.2646C27.4166 50.2646 29.9886 49.7471 32.4292 48.7235L32.4469 48.731L33.0961 48.4299C36.3881 46.9052 39.2052 44.5086 41.2428 41.4984C43.3385 38.402 44.5158 34.7794 44.6471 31.0226C44.8038 26.5319 43.3145 22.0778 40.2221 17.7833L40.2234 17.782ZM25.5281 31.6958C26.209 34.2808 26.0751 36.7647 25.1328 39.0891C22.7781 36.7609 21.0512 34.2011 19.9977 31.473C18.8696 28.5551 18.1912 25.779 17.9765 23.2116C18.9732 23.5394 19.8891 23.972 20.7051 24.5048C23.0522 26.0371 24.6754 28.4565 25.5281 31.697V31.6958ZM25.9576 44.21C26.9581 44.973 28.0104 45.6879 29.0955 46.3459C27.4975 46.7812 25.849 46.9723 24.1815 46.9128C23.9238 46.9039 23.6661 46.8887 23.4071 46.8673C24.3571 46.0472 25.211 45.1577 25.9563 44.21H25.9576ZM28.7519 30.8441C27.6807 26.7774 25.585 23.7026 22.5242 21.7058C21.1813 20.8302 19.6515 20.1659 17.9714 19.7319C17.9955 19.4522 18.0258 19.1739 18.0611 18.9006C18.0914 18.6665 18.123 18.4514 18.1572 18.2502C18.4338 16.8191 18.8456 15.4032 19.3787 14.0429C19.5834 13.5216 19.8069 13.0041 20.0444 12.5042L20.0533 12.4865C20.4196 11.7438 20.8326 10.9935 21.319 10.1912L21.5098 9.87612L21.5034 9.87235C22.6328 8.10468 23.9857 6.4926 25.5332 5.07162L26.1307 5.77895C27.524 7.43275 28.834 8.99673 30.0253 10.4278C32.7045 13.6469 36.1785 17.8743 37.5187 19.7382C40.169 23.4178 41.4462 27.1747 41.3161 30.9075C41.215 33.8063 40.3585 36.6331 38.8376 39.0803C37.3975 41.3997 35.3915 43.3407 33.028 44.7072C31.7091 44.048 29.7941 42.9636 27.7602 41.3858C29.4 38.1123 29.7347 34.5681 28.7531 30.8441H28.7519ZM23.4096 42.0602C21.9064 44.0114 20.1176 45.2805 19.0743 45.9182C18.905 45.8562 18.7357 45.7917 18.5689 45.7233L18.4351 45.6702C15.3439 44.391 12.7366 42.2285 10.8948 39.4144C9.01258 36.5382 8.08031 33.1951 8.2003 29.7458C8.28621 27.2734 8.90138 24.911 10.0308 22.7232C10.6864 22.5777 11.3546 22.4865 12.0229 22.4524L12.1959 22.4486C12.5332 22.441 12.8693 22.441 13.1889 22.4486C13.6588 22.4701 14.1299 22.5195 14.5935 22.5941C14.7451 25.7372 15.5157 29.1284 16.8863 32.6764C18.2064 36.0915 20.3994 39.246 23.4084 42.0589L23.4096 42.0602Z" fill="white"/>
</g>
</g>
<defs>
<clipPath id="clip0_586_151">
<rect width="50" height="50" fill="white"/>
</clipPath>
</defs>
</svg>
