<svg width="51" height="50" viewBox="0 0 51 50" fill="none" xmlns="http://www.w3.org/2000/svg">
<path d="M0.598999 25V49.9825H50.5639V0.0175781H0.598999V25ZM40.8613 23.0077C42.1307 23.3246 43.0972 23.8945 43.9919 24.8126C44.4479 25.2998 45.1302 26.1945 45.188 26.4146C45.2036 26.4802 43.0332 27.9355 41.7154 28.7489C41.667 28.7817 41.4718 28.5787 41.2595 28.2602C40.6177 27.3249 39.9417 26.919 38.9096 26.8456C37.3966 26.7472 36.4207 27.5373 36.4285 28.8629C36.4207 29.1877 36.4941 29.514 36.6393 29.7982C36.9734 30.4899 37.5996 30.9037 39.5341 31.7422C43.1129 33.2786 44.6415 34.295 45.5924 35.7347C46.6572 37.3445 46.893 39.9145 46.1779 41.8335C45.3816 43.907 43.4127 45.3217 40.6474 45.7854C39.7933 45.94 37.7604 45.915 36.8407 45.7448C34.8327 45.3872 32.9294 44.3942 31.7583 43.0935C31.2946 42.5892 30.3999 41.2636 30.4577 41.1746C30.4827 41.1418 30.6857 41.0122 30.9136 40.881C31.1416 40.7499 31.9785 40.2627 32.7686 39.8068L34.2082 38.9699L34.5095 39.4164C34.9327 40.0582 35.8508 40.9372 36.4051 41.2292C37.9993 42.0755 40.1868 41.9537 41.2688 40.9857C41.7076 40.6203 41.9527 40.0582 41.92 39.4898C41.92 38.9121 41.8466 38.6529 41.5452 38.2204C41.1549 37.6677 40.3664 37.1961 38.1132 36.2203C35.5354 35.1054 34.4205 34.4231 33.4134 33.3254C32.7795 32.6009 32.308 31.7484 32.0394 30.8287C31.852 30.1214 31.8036 28.3477 31.9504 27.6403C32.4797 25.1437 34.3659 23.4121 37.0734 22.8999C37.9524 22.7297 40.001 22.7938 40.8629 23.0061L40.8613 23.0077ZM29.1352 25.0984L29.1508 27.1391H22.6444V45.6246H18.0414V27.1391H11.5444V25.139C11.5444 24.0241 11.5694 23.0982 11.6006 23.0732C11.6256 23.0405 15.5775 23.0248 20.3757 23.0326L29.1102 23.0576L29.1352 25.0984Z" fill="white"/>
</svg>
