<svg width="51" height="50" viewBox="0 0 51 50" fill="none" xmlns="http://www.w3.org/2000/svg">
<path d="M13.0671 20.0139C14.7326 13.3658 18.8964 10.0417 25.5584 10.0417C35.5513 10.0417 36.8005 17.5209 41.797 18.7674C45.1279 19.5984 48.0426 18.3519 50.5408 15.0278C48.8753 21.6759 44.7116 25 38.0496 25C28.0566 25 26.8075 17.5209 21.811 16.2743C18.48 15.4433 15.5654 16.6899 13.0671 20.0139ZM0.575928 34.9721C2.24142 28.324 6.40516 25 13.0671 25C23.0601 25 24.3092 32.4791 29.3057 33.7256C32.6367 34.5566 35.5513 33.3101 38.0496 29.9861C36.3841 36.6342 32.2203 39.9582 25.5584 39.9582C15.5654 39.9582 14.3163 32.4791 9.31978 31.2326C5.98879 30.4016 3.07417 31.6481 0.575928 34.9721Z" fill="white"/>
</svg>
