<svg width="50" height="50" viewBox="0 0 50 50" fill="none" xmlns="http://www.w3.org/2000/svg">
<path fill-rule="evenodd" clip-rule="evenodd" d="M18.7512 0.0175781C15.3814 0.0175781 12.6567 1.14832 10.768 3.02686C8.89927 4.88526 7.97815 7.35252 7.97815 9.79327C7.97815 12.234 8.89927 14.7013 10.768 16.5597C10.8973 16.688 11.0304 16.8132 11.1673 16.9352C11.3483 17.0953 11.5361 17.2491 11.7304 17.3966C11.5567 17.5281 11.3883 17.665 11.2252 17.8071C11.0678 17.945 10.9153 18.0871 10.768 18.2335C8.89927 20.0919 7.97815 22.5592 7.97815 24.9999C7.97815 27.4406 8.89927 29.908 10.768 31.7662C11.0503 32.0473 11.3511 32.3104 11.67 32.5565C10.3753 33.5864 9.35947 34.9294 8.7229 36.4653C7.98239 38.2516 7.78864 40.2172 8.1662 42.1137C8.54374 44.0104 9.47547 45.752 10.8438 47.1193C12.2123 48.4865 13.9556 49.4168 15.8534 49.7945C17.7514 50.1721 19.7186 49.9779 21.5066 49.2375C23.2945 48.4983 24.8223 47.2455 25.8975 45.6375C26.9726 44.0306 27.5464 42.1402 27.5464 40.2065V33.1294C29.101 34.1689 30.9709 34.7756 32.9821 34.7756C38.3857 34.7756 42.7662 30.3991 42.7662 24.9999C42.7662 21.9025 41.3244 19.1415 39.0745 17.3499C39.3933 17.1038 39.6942 16.8408 39.9764 16.5597C41.8452 14.7013 42.7662 12.234 42.7662 9.79327C42.7662 7.35252 41.8452 4.88526 39.9764 3.02686C38.0876 1.14832 35.3629 0.0175781 31.9932 0.0175781H18.7512ZM23.1979 19.569H18.7512C16.3884 19.569 14.8138 20.339 13.8362 21.3116C12.8386 22.3046 12.3267 23.6389 12.3267 24.9999C12.3267 26.3609 12.8386 27.6952 13.8362 28.6882C14.8138 29.6607 16.3885 30.4308 18.7512 30.4308H23.1979V19.569ZM14.7609 35.7186C15.6492 35.1256 16.6937 34.7756 17.7623 34.7756C17.7623 34.7756 18.5921 34.7756 18.7512 34.7756H23.1979V40.2065C23.1979 41.2736 22.8481 42.3174 22.2543 43.2053C21.6607 44.0931 20.8169 44.7846 19.8297 45.193C18.8425 45.6025 17.7563 45.7085 16.7083 45.5006C15.6603 45.2927 14.6977 44.7783 13.9421 44.023C13.1866 43.2689 12.6721 42.3068 12.4636 41.2599C12.2551 40.2128 12.3621 39.1266 12.7711 38.1413C13.18 37.1548 13.8724 36.3115 14.7609 35.7186ZM27.5464 15.2242H31.9932C34.3557 15.2242 35.9306 14.4541 36.9081 13.4814C37.9056 12.4886 38.4177 11.1542 38.4177 9.79327C38.4177 8.43236 37.9056 7.09796 36.9081 6.10512C35.9306 5.13242 34.356 4.36233 31.9932 4.36233H27.5464V15.2242ZM23.1979 15.2242H18.7512C16.3885 15.2242 14.8138 14.4541 13.8362 13.4814C12.8386 12.4886 12.3267 11.1542 12.3267 9.79327C12.3267 8.43236 12.8386 7.09796 13.8362 6.10512C14.8138 5.13242 16.3884 4.36233 18.7512 4.36233H23.1979V15.2242ZM32.9821 30.398C29.9983 30.398 27.5797 27.9806 27.5797 24.9999C27.5797 22.0192 29.9983 19.6019 32.9821 19.6019C35.9658 19.6019 38.3844 22.0192 38.3844 24.9999C38.3844 27.9806 35.9658 30.398 32.9821 30.398Z" fill="white"/>
</svg>
