<svg width="51" height="51" viewBox="0 0 51 51" fill="none" xmlns="http://www.w3.org/2000/svg">
<path d="M25.3941 0.581602C19.4524 0.558797 13.6977 2.69439 9.16544 6.60415C4.63317 10.5139 1.62082 15.9412 0.670353 21.9095C-0.280112 27.8778 0.893705 33.9954 3.98062 39.1615C7.06753 44.3277 11.8649 48.2033 17.5096 50.0911C18.7571 50.2942 19.1563 49.5071 19.1563 48.8216V44.5308C12.2449 46.0542 10.7728 41.2048 10.7728 41.2048C10.3069 39.6279 9.29673 38.2754 7.92843 37.3963C5.6579 35.8222 8.10309 35.873 8.10309 35.873C8.88629 35.9761 9.63647 36.258 10.2975 36.6976C10.9586 37.1373 11.5134 37.7233 11.9206 38.4119C12.6137 39.666 13.7652 40.5908 15.1249 40.9855C16.4846 41.3801 17.9424 41.2125 19.1813 40.5192C19.295 39.2321 19.8517 38.0272 20.7532 37.1171C15.4137 36.5585 9.47538 34.375 9.47538 24.7016C9.40321 22.1664 10.2973 19.7009 11.9705 17.8211C11.2108 15.6361 11.3001 13.2384 12.22 11.1182C12.22 11.1182 14.3159 10.4327 19.0815 13.6572C23.1674 12.5395 27.471 12.5395 31.5569 13.6572C36.3225 10.3819 38.4184 11.1182 38.4184 11.1182C39.3383 13.2384 39.4276 15.6361 38.6679 17.8211C40.3411 19.7009 41.2352 22.1664 41.163 24.7016C41.163 34.4004 35.3245 36.5331 29.7605 37.1678C30.3597 37.7808 30.8233 38.5169 31.1202 39.327C31.4171 40.1371 31.5405 41.0024 31.4821 41.8649V48.8216C31.4821 49.5071 31.8813 50.3196 33.1538 50.0911C38.7882 48.2066 43.5786 44.3414 46.6662 39.1886C49.7537 34.0357 50.9365 27.9321 50.0024 21.9723C49.0683 16.0125 46.0784 10.5861 41.5689 6.66617C37.0593 2.74624 31.325 0.589131 25.3941 0.581602Z" fill="white"/>
</svg>
