<svg width="50" height="50" viewBox="0 0 50 50" fill="none" xmlns="http://www.w3.org/2000/svg">
<path d="M37.7592 24.297C40.832 24.5015 43.5817 22.403 44.1844 19.3863C43.4427 18.2387 42.1749 17.5486 40.8102 17.5486C37.2627 17.4674 35.3593 21.6879 37.7608 24.2985L37.7592 24.297ZM23.4302 7.35574L31.7978 2.50915L29.1309 1.00552L17.5906 7.68988L18.5102 8.20202L20.2574 9.18414L23.4302 7.34793V7.35574ZM32.8705 2.06259C33.0094 2.10475 33.1218 2.21873 33.164 2.35613L37.0425 14.2119C37.1159 14.4164 37.0347 14.6366 36.8473 14.749C33.7745 16.554 32.2943 20.1967 33.2296 23.638C34.2539 27.3714 37.8154 29.8103 41.6627 29.4199C41.8735 29.4027 42.0765 29.5339 42.1421 29.7369L46.1439 41.9205C46.208 42.125 46.1268 42.3436 45.9488 42.4576L33.6777 49.9071C33.6199 49.9399 33.5465 49.9633 33.4732 49.9633C33.367 49.9883 33.2546 49.9633 33.1562 49.8993L28.8389 47.0934C28.764 47.045 28.7078 46.9732 28.6687 46.892L20.2434 26.7562L7.41023 34.368C7.38525 34.3852 7.35246 34.4008 7.32904 34.418C7.19788 34.4742 7.0433 34.457 6.92151 34.3852L4.01886 32.6786C3.80651 32.5646 3.72532 32.296 3.8393 32.0837L16.2571 7.49315C16.2962 7.40415 16.3774 7.33076 16.4679 7.2886L28.8951 0.0920994C29.0325 0.0109065 29.2027 0.00309945 29.3511 0.0842924L32.8705 2.06259ZM19.8765 10.0257L16.8598 8.32537L4.84797 32.104L7.02769 33.389L17.3813 19.313C17.4797 19.174 17.6421 19.1006 17.8045 19.1256C17.9669 19.1428 18.1043 19.2458 18.1714 19.402L29.4572 46.408L32.4754 48.3613L19.8858 10.0257H19.8765ZM40.8086 26.5095C37.2861 26.5095 34.8956 22.9307 36.2446 19.6768C37.5875 16.4244 41.8079 15.5875 44.2952 18.0763C45.2243 19.0022 45.7442 20.256 45.7442 21.5661C45.752 24.297 43.5395 26.5095 40.8086 26.5095Z" fill="white"/>
</svg>
