<svg width="26" height="26" viewBox="0 0 26 26" fill="none" xmlns="http://www.w3.org/2000/svg">
<g clip-path="url(#clip0_627_455)">
<path d="M5.78675 25.9619H0.427024V8.62903H5.78675V25.9619ZM3.104 6.26467C1.39014 6.26467 0 4.8391 0 3.11799C1.22671e-08 2.29127 0.327028 1.49842 0.909142 0.913841C1.49126 0.329266 2.28077 0.000854492 3.104 0.000854492C3.92724 0.000854492 4.71675 0.329266 5.29887 0.913841C5.88098 1.49842 6.20801 2.29127 6.20801 3.11799C6.20801 4.8391 4.81729 6.26467 3.104 6.26467ZM25.8465 25.9619H20.4983V17.5244C20.4983 15.5135 20.4579 12.9347 17.7117 12.9347C14.9251 12.9347 14.498 15.1194 14.498 17.3795V25.9619H9.14409V8.62903H14.2845V10.9934H14.3596C15.0751 9.63157 16.823 8.19441 19.4308 8.19441C24.8551 8.19441 25.8523 11.7815 25.8523 16.4407V25.9619H25.8465Z" fill="white"/>
</g>
<defs>
<clipPath id="clip0_627_455">
<rect width="26" height="26" fill="white"/>
</clipPath>
</defs>
</svg>
