<svg width="46" height="46" viewBox="0 0 46 46" fill="none" xmlns="http://www.w3.org/2000/svg">
<g clip-path="url(#clip0_427_52)">
<path d="M41.6595 4.70886C41.7287 5.45347 41.8464 6.12223 41.8464 6.7841C41.8603 16.1537 41.8533 25.5164 41.8464 34.886C41.8464 35.3686 41.798 35.8581 41.6872 36.3339C40.9811 39.4364 38.3644 41.5254 35.1731 41.5254C26.1046 41.5254 17.0362 41.5323 7.97463 41.5254C6.88779 41.5254 5.80096 41.4289 4.78335 41.3875C4.76259 41.3668 4.82489 41.4427 4.89411 41.5116C6.16785 42.6906 7.55928 43.7247 9.08915 44.5521C10.0445 45.0692 11.0274 45.4346 12.1558 45.4346C21.3558 45.4208 30.5627 45.4346 39.7627 45.4208C40.2473 45.4208 40.7457 45.407 41.2165 45.3105C43.9716 44.7451 45.6538 42.5941 45.6538 39.6432C45.6538 30.4115 45.6538 21.1798 45.6538 11.9412C45.6538 11.5413 45.6261 11.1276 45.5084 10.7484C44.7954 8.39052 43.2655 6.5428 41.6595 4.70886Z" fill="black" stroke="black" stroke-miterlimit="10"/>
<path d="M32.4595 20.4697C32.4526 22.3588 32.5356 24.2617 32.411 26.1439C32.2726 28.2743 30.9573 30.8666 27.8837 31.4458C25.7793 31.8387 23.9379 31.2734 22.5465 29.6325C21.7642 28.7155 21.2935 27.6262 21.2312 26.3576C21.0443 22.5243 21.2312 18.6978 21.1897 14.8645C21.1758 13.6166 21.965 12.9203 23.1972 13.0237C23.841 13.0788 24.5471 13.8097 24.554 14.4508C24.554 15.4299 24.2979 24.0549 24.3809 25.8957C24.464 27.7365 25.3639 28.7569 26.8176 28.8534C28.036 28.9155 29.0536 27.7848 29.1367 26.4404C29.1367 26.4404 29.3167 25.8405 29.0882 14.9679C29.0882 13.851 29.5659 13.2512 30.6319 12.9892C31.248 12.8375 32.2033 13.5339 32.3833 14.2854C32.4456 14.5405 32.4595 14.8025 32.4595 15.0645C32.4595 16.8708 32.4456 18.6703 32.4387 20.4766C32.4456 20.4766 32.4526 20.4766 32.4595 20.4766V20.4697Z" fill="black"/>
<path d="M7.53159 20.1663C7.53159 18.3255 7.53159 16.4846 7.53159 14.6438C7.53159 13.9199 8.05077 13.2442 8.7361 13.0374C9.37989 12.8443 10.2591 13.1615 10.6259 13.7613C10.8613 14.1405 10.9098 14.5749 10.9098 15.0092C10.9098 18.4978 10.9098 21.9864 10.9098 25.475C10.9098 26.7229 12.1281 28.0191 13.3742 28.0536C14.904 28.088 16.4339 28.0674 17.9638 28.0812C19.3552 28.0949 20.1375 29.0671 19.7706 30.4391C19.6113 31.0389 19.0368 31.5215 18.3861 31.5284C16.5378 31.5422 14.6894 31.5698 12.8481 31.5077C11.8789 31.4732 11.0067 31.0251 10.2175 30.4666C8.43843 29.2118 7.58697 27.4606 7.53851 25.3234C7.49697 23.6066 7.53159 21.8899 7.53159 20.1732V20.1663Z" fill="black"/>
<path d="M33.2281 10.7554C33.0273 10.8933 32.7989 10.8726 32.6327 10.7071C32.4666 10.5416 32.5151 10.2659 32.612 10.1418C33.0273 9.76945 37.4439 5.85338 37.4439 5.85338C37.4439 5.85338 35.5263 5.80512 34.7372 5.78444C34.4118 5.77755 34.2388 5.63966 34.2318 5.38456C34.218 5.07431 34.398 4.90884 34.7718 4.91573C35.8863 4.94331 38.4338 4.99847 38.5861 5.01226C38.9114 5.03984 39.0014 5.2122 38.9876 5.54313C38.9668 5.62587 38.9114 7.93552 38.8838 8.99727C38.8768 9.3351 38.6968 9.50057 38.3784 9.47988C38.1084 9.4592 37.9561 9.29373 37.9631 8.99727C37.9769 8.25266 38.0254 6.43252 38.0254 6.43252C38.0254 6.43252 33.3111 10.7209 33.2419 10.7623L33.2281 10.7554Z" fill="black"/>
<path d="M0.34612 20.5386C0.34612 15.9952 0.34612 11.4448 0.34612 6.90133C0.34612 3.66093 2.45748 1.09618 5.64875 0.475675C6.14025 0.379152 6.65944 0.372257 7.16478 0.372257C16.0256 0.372257 24.8933 0.40673 33.7541 0.344679C36.1077 0.33089 38.0737 1.04102 39.8044 2.58539C41.9919 4.52963 43.8609 6.72208 45.0931 9.39714C45.4739 10.2245 45.6469 11.0863 45.6469 12.0101C45.6331 21.0695 45.6469 30.1289 45.64 39.1882C45.64 42.2769 43.6325 44.8003 40.6212 45.5035C40.1782 45.607 39.7144 45.6552 39.2575 45.6552C30.0506 45.6621 20.8436 45.6552 11.6298 45.6621C10.716 45.6621 9.88532 45.3794 9.08924 44.9796C6.07103 43.4766 3.59277 41.3324 1.60602 38.6091C0.692245 37.3543 0.332275 35.9478 0.332275 34.4241C0.332275 29.7979 0.332275 25.1717 0.332275 20.5455L0.34612 20.5386Z" stroke="black" stroke-miterlimit="10"/>
</g>
<defs>
<clipPath id="clip0_427_52">
<rect width="46" height="46" fill="white"/>
</clipPath>
</defs>
</svg>
