<svg width="24" height="24" viewBox="0 0 24 24" fill="none" xmlns="http://www.w3.org/2000/svg">
<path d="M12 0C5.37097 0 0 5.37097 0 12C0 18.629 5.37097 24 12 24C18.629 24 24 18.629 24 12C24 5.37097 18.629 0 12 0ZM12 21.6774C6.65323 21.6774 2.32258 17.3468 2.32258 12C2.32258 6.65323 6.65323 2.32258 12 2.32258C17.3468 2.32258 21.6774 6.65323 21.6774 12C21.6774 17.3468 17.3468 21.6774 12 21.6774ZM10.4516 6.3871V12H7.20968C6.69194 12 6.43548 12.6242 6.79839 12.9919L11.5887 17.7823C11.8161 18.0097 12.1839 18.0097 12.4113 17.7823L17.2016 12.9919C17.5694 12.6242 17.3081 12 16.7903 12H13.5484V6.3871C13.5484 6.06774 13.2871 5.80645 12.9677 5.80645H11.0323C10.7129 5.80645 10.4516 6.06774 10.4516 6.3871Z" fill="white"/>
</svg>
