<svg width="80" height="81" viewBox="0 0 80 81" fill="none" xmlns="http://www.w3.org/2000/svg">
<g clip-path="url(#clip0_384_112)">
<path d="M40.1003 0.175674C30.5869 0.139161 21.373 3.55851 14.1162 9.81852C6.85949 16.0785 2.03634 24.7683 0.514528 34.3243C-1.00729 43.8803 0.872142 53.6753 5.81467 61.9469C10.7572 70.2186 18.4384 76.424 27.4762 79.4465C29.4737 79.7718 30.1129 78.5116 30.1129 77.414V70.5438C19.0469 72.9829 16.6899 65.2184 16.6899 65.2184C15.9438 62.6937 14.3264 60.5282 12.1356 59.1207C8.50021 56.6003 12.4153 56.6816 12.4153 56.6816C13.6693 56.8466 14.8704 57.298 15.9288 58.002C16.9873 58.7059 17.8756 59.6442 18.5275 60.7467C19.6372 62.7546 21.4811 64.2355 23.6581 64.8673C25.8351 65.4992 28.1692 65.2309 30.1528 64.1208C30.3348 62.06 31.2262 60.1308 32.6697 58.6735C24.1205 57.7792 14.6125 54.2831 14.6125 38.7948C14.4969 34.7356 15.9284 30.7881 18.6074 27.7782C17.3911 24.2798 17.534 20.4408 19.0069 17.0461C19.0069 17.0461 22.3627 15.9485 29.993 21.1113C36.5352 19.3217 43.4257 19.3217 49.9678 21.1113C57.5981 15.8672 60.9539 17.0461 60.9539 17.0461C62.4268 20.4408 62.5697 24.2798 61.3534 27.7782C64.0324 30.7881 65.4639 34.7356 65.3483 38.7948C65.3483 54.3238 56.0002 57.7385 47.0914 58.7548C48.0509 59.7362 48.7932 60.9149 49.2686 62.2119C49.744 63.5089 49.9415 64.8943 49.8479 66.2754V77.414C49.8479 78.5116 50.4871 79.8124 52.5245 79.4465C61.5459 76.4293 69.216 70.2406 74.1596 61.9902C79.1032 53.7399 80.9969 43.9673 79.5013 34.4249C78.0057 24.8824 73.2185 16.1941 65.9981 9.91782C58.7778 3.64154 49.5964 0.187729 40.1003 0.175674Z" fill="#5DCDEA"/>
</g>
<defs>
<clipPath id="clip0_384_112">
<rect width="80" height="80.3383" fill="white" transform="translate(0 0.177643)"/>
</clipPath>
</defs>
</svg>
