<svg width="80" height="80" viewBox="0 0 80 80" fill="none" xmlns="http://www.w3.org/2000/svg">
<path d="M20 33.2667C22.6667 22.6222 29.3333 17.3 40 17.3C56 17.3 58 29.275 66 31.2708C71.3333 32.6014 76 30.6056 80 25.2833C77.3333 35.9278 70.6667 41.25 60 41.25C44 41.25 42 29.275 34 27.2792C28.6667 25.9486 24 27.9444 20 33.2667ZM0 57.2167C2.66667 46.5722 9.33333 41.25 20 41.25C36 41.25 38 53.225 46 55.2208C51.3333 56.5514 56 54.5556 60 49.2333C57.3333 59.8778 50.6667 65.2 40 65.2C24 65.2 22 53.225 14 51.2292C8.66667 49.8986 4 51.8945 0 57.2167Z" fill="#5DCDEA"/>
</svg>
