<svg width="80" height="81" viewBox="0 0 80 81" fill="none" xmlns="http://www.w3.org/2000/svg">
<g clip-path="url(#clip0_384_98)">
<path d="M60.73 39.7839C65.65 40.1114 70.0525 36.7514 71.0175 31.9214C69.83 30.0839 67.8 28.9789 65.615 28.9789C59.935 28.8489 56.8875 35.6064 60.7325 39.7864L60.73 39.7839ZM37.7875 12.6589L51.185 4.89886L46.915 2.49136L28.4375 13.1939L29.91 14.0139L32.7075 15.5864L37.7875 12.6464V12.6589ZM52.9025 4.18386C53.125 4.25136 53.305 4.43386 53.3725 4.65386L59.5825 23.6364C59.7 23.9639 59.57 24.3164 59.27 24.4964C54.35 27.3864 51.98 33.2189 53.4775 38.7289C55.1175 44.7064 60.82 48.6114 66.98 47.9864C67.3175 47.9589 67.6425 48.1689 67.7475 48.4939L74.155 68.0014C74.2575 68.3289 74.1275 68.6789 73.8425 68.8614L54.195 80.7889C54.1025 80.8414 53.985 80.8789 53.8675 80.8789C53.6975 80.9189 53.5175 80.8789 53.36 80.7764L46.4475 76.2839C46.3275 76.2064 46.2375 76.0914 46.175 75.9614L32.685 43.7214L12.1375 55.9089C12.0975 55.9364 12.045 55.9614 12.0075 55.9889C11.7975 56.0789 11.55 56.0514 11.355 55.9364L6.70747 53.2039C6.36747 53.0214 6.23747 52.5914 6.41997 52.2514L26.3025 12.8789C26.365 12.7364 26.495 12.6189 26.64 12.5514L46.5375 1.02886C46.7575 0.898856 47.03 0.886356 47.2675 1.01636L52.9025 4.18386ZM32.0975 16.9339L27.2675 14.2114L8.03497 52.2839L11.525 54.3414L28.1025 31.8039C28.26 31.5814 28.52 31.4639 28.78 31.5039C29.04 31.5314 29.26 31.6964 29.3675 31.9464L47.4375 75.1864L52.27 78.3139L32.1125 16.9339H32.0975ZM65.6125 43.3264C59.9725 43.3264 56.145 37.5964 58.305 32.3864C60.455 27.1789 67.2125 25.8389 71.195 29.8239C72.6825 31.3064 73.515 33.3139 73.515 35.4114C73.5275 39.7839 69.985 43.3264 65.6125 43.3264Z" fill="#5DCDEA"/>
</g>
<defs>
<clipPath id="clip0_384_98">
<rect width="80" height="80" fill="white" transform="translate(0 0.916351)"/>
</clipPath>
</defs>
</svg>
