<svg width="80" height="81" viewBox="0 0 80 81" fill="none" xmlns="http://www.w3.org/2000/svg">
<g clip-path="url(#clip0_384_116)">
<path d="M43.5014 37.1015H36.0107C36.0107 43.5875 35.9814 50.0333 35.9814 56.5273C36.0694 57.4084 36.1174 58.434 36.1174 59.4704C36.1174 61.6395 35.9014 63.7578 35.4881 65.8037L35.5227 65.6002C34.4241 67.9059 31.5894 67.6114 30.3041 67.207C29.1014 66.5589 28.1494 65.5761 27.5547 64.3818L27.5387 64.3443C27.4214 64.0925 27.2801 63.8783 27.1121 63.6855L27.1147 63.6882L21.0321 67.4534C22.0107 69.5689 23.5227 71.2935 25.3974 72.5013L25.4454 72.5307C27.4801 73.6742 29.9121 74.3464 32.4987 74.3464C33.7894 74.3464 35.0427 74.1777 36.2347 73.8644L36.1334 73.8885C38.7681 73.2243 40.9147 71.5051 42.1441 69.2181L42.1681 69.1673C43.1254 66.7196 43.6774 63.8837 43.6774 60.9192C43.6774 59.8801 43.6081 58.8572 43.4774 57.8529L43.4907 57.9708C43.5307 51.0965 43.4907 44.2195 43.4907 37.2917L43.5014 37.1015ZM73.4374 61.3477C72.8534 57.6842 70.4774 54.6046 63.4294 51.7338C60.9761 50.5796 58.2507 49.7762 57.4401 47.9178C57.2721 47.4946 57.1761 47.0046 57.1761 46.4931C57.1761 46.161 57.2161 45.8397 57.2934 45.5317L57.2881 45.5585C57.8427 44.0856 59.2374 43.0546 60.8694 43.0546C61.4001 43.0546 61.9041 43.1617 62.3601 43.3572L62.3361 43.3465C63.8081 43.8553 64.9707 44.9372 65.5761 46.3244L65.5894 46.3592C69.0347 44.0963 69.0347 44.0963 71.4374 42.594C70.8614 41.6058 70.2134 40.7489 69.4801 39.9776L69.4854 39.983C67.4401 37.8032 64.5467 36.4481 61.3361 36.4481C60.8801 36.4481 60.4294 36.4749 59.9894 36.5285L60.0427 36.5231L57.6934 36.8204C55.4107 37.3399 53.4614 38.5316 52.0054 40.1731L51.9974 40.1838C50.5707 41.9647 49.7067 44.2516 49.7067 46.7421C49.7067 50.1672 51.3414 53.2094 53.8667 55.1268L53.8934 55.1455C58.4427 58.5599 65.0934 59.3097 65.9441 62.5233C66.7441 66.4384 63.0454 67.6944 59.3921 67.2418C56.8401 66.658 54.7494 65.0191 53.5681 62.8178L53.5441 62.7723L47.4454 66.2885C48.1627 67.7238 49.0641 68.9503 50.1414 69.9974L50.1441 70.0001C55.9414 75.8755 70.4374 75.5756 73.0401 66.6393C73.3414 65.6645 73.5147 64.5451 73.5147 63.3856C73.5147 62.5822 73.4321 61.7975 73.2721 61.0424L73.2854 61.1173L73.4374 61.3477ZM0.0107422 0.186066H79.9867V80.5003H0.0107422V0.186066Z" fill="#5DCDEA"/>
</g>
<defs>
<clipPath id="clip0_384_116">
<rect width="80" height="80.3383" fill="white" transform="translate(0 0.177643)"/>
</clipPath>
</defs>
</svg>
