<svg width="92" height="81" viewBox="0 0 92 81" fill="none" xmlns="http://www.w3.org/2000/svg">
<path d="M74.5123 26.1556C73.5501 25.8336 72.588 25.5294 71.6258 25.2431C71.7862 24.5811 71.9287 23.9191 72.0713 23.257C74.2628 12.593 72.8196 4.02234 67.9555 1.19529C63.2695 -1.50651 55.6258 1.30265 47.8931 8.0661C47.1269 8.72813 46.3786 9.42595 45.6659 10.1238C45.1849 9.65855 44.686 9.19334 44.1871 8.74602C36.0802 1.51736 27.9555 -1.5244 23.0913 1.32054C18.4232 4.04024 17.0334 12.1099 18.9933 22.2014C19.1893 23.2033 19.4031 24.1874 19.6526 25.1894C18.5122 25.5115 17.3898 25.8694 16.3385 26.2451C6.82405 29.5553 0 34.7799 0 40.1835C0 45.7661 7.26949 51.3665 17.1581 54.7661C17.9599 55.0345 18.7617 55.3029 19.5813 55.5355C19.314 56.6091 19.0824 57.6647 18.8686 58.7562C16.9978 68.6867 18.4588 76.5595 23.1269 79.2613C27.9376 82.0525 36.0267 79.1897 43.902 72.2652C44.5256 71.7105 45.1492 71.138 45.7728 70.5296C46.5568 71.299 47.3764 72.0326 48.196 72.7483C55.8218 79.3328 63.3586 81.9989 68.0089 79.2971C72.8196 76.5058 74.3875 68.0425 72.3563 57.7363C72.196 56.949 72.0178 56.1439 71.8218 55.3208C72.392 55.1598 72.9443 54.9808 73.4967 54.8019C83.7773 51.3844 91.2249 45.8555 91.2249 40.1835C91.2249 34.7621 84.2049 29.5016 74.5123 26.1556ZM50.4053 10.9647C57.0334 5.16748 63.216 2.8951 66.0312 4.52334C69.0423 6.25893 70.2004 13.2729 68.3118 22.4876C68.1871 23.096 68.0624 23.6864 67.902 24.2769C63.9466 23.3823 59.9376 22.7381 55.9109 22.3803C53.5947 19.0522 51.0646 15.8673 48.3207 12.8792C49.0156 12.2172 49.6926 11.591 50.4053 10.9647ZM29.7906 49.4699C30.6993 51.0265 31.6258 52.5832 32.6058 54.1041C29.8263 53.7999 27.0646 53.3526 24.3385 52.7621C25.1225 50.1856 26.1024 47.5196 27.2428 44.7999C28.0624 46.3744 28.8998 47.9311 29.7906 49.4699ZM24.392 27.9449C26.9577 27.3724 29.6837 26.9071 32.5167 26.5493C31.5724 28.0344 30.6459 29.5553 29.7728 31.094C28.8998 32.6149 28.0445 34.1716 27.2428 35.7461C26.1203 33.0801 25.1759 30.4678 24.392 27.9449ZM29.2739 40.273C30.4499 37.8038 31.7327 35.3883 33.0869 33.0086C34.441 30.6288 35.902 28.3207 37.4343 26.0483C40.1069 25.8515 42.833 25.7441 45.6125 25.7441C48.392 25.7441 51.1359 25.8515 53.7906 26.0483C55.3051 28.3028 56.7483 30.6109 58.1203 32.9728C59.4922 35.3346 60.7751 37.7501 61.9866 40.2014C60.7929 42.6706 59.51 45.104 58.1381 47.5017C56.784 49.8814 55.3408 52.1896 53.8263 54.4798C51.1715 54.6767 48.4098 54.7661 45.6125 54.7661C42.8151 54.7661 40.1069 54.6767 37.4878 54.5156C35.9376 52.2432 34.4766 49.9172 33.1047 47.5375C31.7327 45.1577 30.4677 42.7422 29.2739 40.273ZM61.4521 49.4341C62.3608 47.8595 63.216 46.2671 64.0535 44.6567C65.1938 47.2512 66.1915 49.8814 67.0646 52.5832C64.3029 53.2095 61.5056 53.6926 58.6904 54.0146C59.6526 52.5116 60.5612 50.9729 61.4521 49.4341ZM64.0178 35.7461C63.1804 34.1716 62.3252 32.597 61.4343 31.0583C60.5612 29.5374 59.6526 28.0344 58.7082 26.5493C61.5768 26.9071 64.3207 27.3902 66.8864 27.9807C66.0668 30.6288 65.1047 33.2054 64.0178 35.7461ZM45.6481 15.6168C47.5189 17.6566 49.2828 19.8037 50.922 22.0224C47.3942 21.8614 43.8486 21.8614 40.3207 22.0224C42.0668 19.7143 43.8664 17.5671 45.6481 15.6168ZM24.98 4.64859C27.9733 2.8951 34.6192 5.40008 41.6214 11.6268C42.0668 12.0204 42.5122 12.4498 42.9755 12.8792C40.2138 15.8673 37.6659 19.0522 35.3318 22.3803C31.3051 22.7381 27.314 23.3644 23.3586 24.2411C23.1269 23.3286 22.931 22.3982 22.735 21.4678C21.0601 12.8077 22.1648 6.27683 24.98 4.64859ZM20.6147 51.8138C19.8664 51.5991 19.1359 51.3665 18.4053 51.116C14.6102 49.9172 10.2984 48.0206 7.1804 45.5335C5.38085 44.281 4.16926 42.3486 3.83073 40.1835C3.83073 36.9092 9.46102 32.7223 17.5857 29.8773C18.6013 29.5195 19.6347 29.1974 20.6682 28.8932C21.8797 32.776 23.3408 36.5871 25.0334 40.273C23.3229 44.0126 21.8441 47.8774 20.6147 51.8138ZM41.3898 69.3487C38.4499 72.0505 35.0468 74.1976 31.3408 75.6648C29.363 76.6131 27.0824 76.7026 25.0512 75.8974C22.2183 74.2513 21.0423 67.9352 22.6459 59.4361C22.8419 58.4341 23.0557 57.4321 23.3051 56.448C27.2962 57.3069 31.3229 57.8973 35.4031 58.2015C37.755 61.5475 40.3385 64.7503 43.1002 67.7562C42.5301 68.3109 41.9599 68.8477 41.3898 69.3487ZM45.755 65.0008C43.9376 63.0326 42.1203 60.8497 40.3563 58.5057C42.0668 58.5773 43.8307 58.6131 45.6125 58.6131C47.4477 58.6131 49.2472 58.5773 51.029 58.4878C49.3898 60.7602 47.6258 62.9252 45.755 65.0008ZM69.0423 70.3686C68.882 72.5515 67.8129 74.5913 66.1024 75.969C63.2695 77.6151 57.2294 75.468 50.7082 69.8497C49.9599 69.2056 49.2116 68.5077 48.4454 67.792C51.1715 64.7682 53.6837 61.5654 55.9644 58.2015C60.0445 57.8616 64.1069 57.2353 68.1158 56.3228C68.294 57.0564 68.4543 57.79 68.5969 58.5057C69.4699 62.3705 69.6125 66.3964 69.0423 70.3686ZM72.2851 51.1339C71.7862 51.2949 71.2873 51.456 70.7706 51.5991C69.5234 47.6985 67.9911 43.8873 66.2272 40.1835C67.9376 36.5334 69.3809 32.776 70.5924 28.929C71.5189 29.1974 72.4098 29.4837 73.265 29.77C81.5679 32.6328 87.3942 36.8913 87.3942 40.1478C87.3942 43.6547 81.1759 48.1816 72.2851 51.1339ZM45.6125 48.45C50.1203 48.45 53.7728 44.782 53.7728 40.2551C53.7728 35.7283 50.1203 32.0602 45.6125 32.0602C41.1047 32.0602 37.4521 35.7283 37.4521 40.2551C37.4521 44.782 41.1047 48.45 45.6125 48.45Z" fill="#5DCDEA"/>
</svg>
