<svg width="80" height="80" viewBox="0 0 80 80" fill="none" xmlns="http://www.w3.org/2000/svg">
<path d="M40 79.8517C38.8614 79.8517 37.7984 79.558 36.8117 79.0447L26.715 73.2493C25.1967 72.4423 25.9559 72.149 26.4114 72.002C28.461 71.342 28.8406 71.1954 30.9662 70.0213C31.194 69.8747 31.4976 69.948 31.7254 70.0947L39.4687 74.5697C39.7724 74.7163 40.1517 74.7163 40.3797 74.5697L70.6694 57.6237C70.973 57.477 71.125 57.1837 71.125 56.8167V22.9981C71.125 22.6313 70.973 22.3379 70.6694 22.1912L40.3797 5.31855C40.076 5.17185 39.6964 5.17185 39.4687 5.31855L9.17877 22.1912C8.87514 22.3379 8.72331 22.7047 8.72331 22.9981V56.8167C8.72331 57.1103 8.87514 57.477 9.17877 57.6237L17.4534 62.2453C21.9324 64.446 24.7412 61.8787 24.7412 59.311V25.9325C24.7412 25.4923 25.1208 25.0522 25.6522 25.0522H29.5238C29.9793 25.0522 30.4348 25.419 30.4348 25.9325V59.311C30.4348 65.1063 27.1705 68.481 21.4769 68.481C19.7309 68.481 18.3644 68.481 14.4928 66.647L6.52177 62.2453C4.54801 61.145 3.33337 59.091 3.33337 56.89V23.0715C3.33337 20.8707 4.54801 18.8167 6.52177 17.7163L36.8117 0.770288C38.7094 -0.256742 41.2907 -0.256742 43.1884 0.770288L73.4784 17.7163C75.452 18.8167 76.6667 20.8707 76.6667 23.0715V56.89C76.6667 59.091 75.452 61.145 73.4784 62.2453L43.1884 79.1913C42.2017 79.6313 41.0627 79.8517 40 79.8517ZM49.3374 56.5967C36.0524 56.5967 33.3196 50.728 33.3196 45.7397C33.3196 45.2993 33.699 44.8593 34.2307 44.8593H38.178C38.6337 44.8593 39.013 45.1527 39.013 45.5927C39.6204 49.4807 41.3664 51.3883 49.4134 51.3883C55.7904 51.3883 58.523 49.9943 58.523 46.6933C58.523 44.786 57.764 43.392 47.8194 42.4383C39.5447 41.6313 34.3824 39.8707 34.3824 33.4887C34.3824 27.5464 39.5447 24.0252 48.1987 24.0252C57.9157 24.0252 62.6984 27.253 63.3057 34.2953C63.3057 34.5157 63.2297 34.7357 63.078 34.9557C62.926 35.1023 62.6984 35.249 62.4707 35.249H58.523C58.1437 35.249 57.764 34.9557 57.688 34.589C56.777 30.5541 54.4237 29.2337 48.1987 29.2337C41.2147 29.2337 40.3797 31.5812 40.3797 33.3417C40.3797 35.4693 41.3664 36.1293 50.78 37.3033C60.1174 38.477 64.5204 40.1643 64.5204 46.473C64.4444 52.9287 58.9787 56.5967 49.3374 56.5967Z" fill="#5DCDEA"/>
</svg>
