<svg width="80" height="81" viewBox="0 0 80 81" fill="none" xmlns="http://www.w3.org/2000/svg">
<g clip-path="url(#clip0_384_107)">
<path d="M40 0.916351C17.944 0.916351 0 18.8604 0 40.9164C0 62.9724 17.944 80.9164 40 80.9164C62.056 80.9164 80 62.9724 80 40.9164C80 18.8604 62.056 0.916351 40 0.916351ZM40 6.91635C58.748 6.91635 74 22.1684 74 40.9164C74 52.6204 68.0553 62.9565 59.0273 69.0765L31.4844 28.2367C30.7504 27.1427 29.3751 26.6653 28.1211 27.0453C26.8611 27.4333 26 28.5984 26 29.9164V55.9164C26 57.5724 27.344 58.9164 29 58.9164C30.656 58.9164 32 57.5724 32 55.9164V39.7289L53.7539 71.9828C49.5419 73.8528 44.896 74.9164 40 74.9164C21.252 74.9164 6 59.6644 6 40.9164C6 22.1684 21.252 6.91635 40 6.91635ZM51 22.9164C49.344 22.9164 48 24.2604 48 25.9164V42.889L54 51.4945V25.9164C54 24.2604 52.656 22.9164 51 22.9164Z" fill="#5DCDEA"/>
</g>
<defs>
<clipPath id="clip0_384_107">
<rect width="80" height="80" fill="white" transform="translate(0 0.916351)"/>
</clipPath>
</defs>
</svg>
