<svg width="67" height="67" viewBox="0 0 67 67" fill="none" xmlns="http://www.w3.org/2000/svg">
<g clip-path="url(#clip0_412_35)">
<path d="M60.18 6.83008C60.28 7.91008 60.45 8.88008 60.45 9.84008C60.47 23.4301 60.46 37.0101 60.45 50.6001C60.45 51.3001 60.38 52.0101 60.22 52.7001C59.2 57.2001 55.42 60.2301 50.81 60.2301C37.71 60.2301 24.61 60.2401 11.52 60.2301C9.95 60.2301 8.38 60.0901 6.91 60.0301C6.88 60.0001 6.97 60.1101 7.07 60.2101C8.91 61.9201 10.92 63.4201 13.13 64.6201C14.51 65.3701 15.93 65.9001 17.56 65.9001C30.85 65.8801 44.15 65.9001 57.44 65.8801C58.14 65.8801 58.86 65.8601 59.54 65.7201C63.52 64.9001 65.95 61.7801 65.95 57.5001C65.95 44.1101 65.95 30.7201 65.95 17.3201C65.95 16.7401 65.91 16.1401 65.74 15.5901C64.71 12.1701 62.5 9.49008 60.18 6.83008Z" fill="white" stroke="white" stroke-miterlimit="10"/>
<path d="M46.89 29.6901C46.88 32.4301 47 35.1901 46.82 37.9201C46.62 41.0101 44.72 44.7701 40.28 45.6101C37.24 46.1801 34.58 45.3601 32.57 42.9801C31.44 41.6501 30.76 40.0701 30.67 38.2301C30.4 32.6701 30.67 27.1201 30.61 21.5601C30.59 19.7501 31.73 18.7401 33.51 18.8901C34.44 18.9701 35.46 20.0301 35.47 20.9601C35.47 22.3801 35.1 34.8901 35.22 37.5601C35.34 40.2301 36.64 41.7101 38.74 41.8501C40.5 41.9401 41.97 40.3001 42.09 38.3501C42.09 38.3501 42.35 37.4801 42.02 21.7101C42.02 20.0901 42.71 19.2201 44.25 18.8401C45.14 18.6201 46.52 19.6301 46.78 20.7201C46.87 21.0901 46.89 21.4701 46.89 21.8501C46.89 24.4701 46.87 27.0801 46.86 29.7001C46.87 29.7001 46.88 29.7001 46.89 29.7001V29.6901Z" fill="white"/>
<path d="M10.88 29.2501C10.88 26.5801 10.88 23.9101 10.88 21.2401C10.88 20.1901 11.63 19.2101 12.62 18.9101C13.55 18.6301 14.82 19.0901 15.35 19.9601C15.69 20.5101 15.76 21.1401 15.76 21.7701C15.76 26.8301 15.76 31.8901 15.76 36.9501C15.76 38.7601 17.52 40.6401 19.32 40.6901C21.53 40.7401 23.74 40.7101 25.95 40.7301C27.96 40.7501 29.09 42.1601 28.56 44.1501C28.33 45.0201 27.5 45.7201 26.56 45.7301C23.89 45.7501 21.22 45.7901 18.56 45.7001C17.16 45.6501 15.9 45.0001 14.76 44.1901C12.19 42.3701 10.96 39.8301 10.89 36.7301C10.83 34.2401 10.88 31.7501 10.88 29.2601V29.2501Z" fill="white"/>
<path d="M48 15.6001C47.71 15.8001 47.38 15.7701 47.14 15.5301C46.9 15.2901 46.97 14.8901 47.11 14.7101C47.71 14.1701 54.09 8.49006 54.09 8.49006C54.09 8.49006 51.32 8.42006 50.18 8.39006C49.71 8.38006 49.46 8.18006 49.45 7.81006C49.43 7.36006 49.69 7.12006 50.23 7.13006C51.84 7.17006 55.52 7.25006 55.74 7.27006C56.21 7.31006 56.34 7.56006 56.32 8.04006C56.29 8.16006 56.21 11.5101 56.17 13.0501C56.16 13.5401 55.9 13.7801 55.44 13.7501C55.05 13.7201 54.83 13.4801 54.84 13.0501C54.86 11.9701 54.93 9.33006 54.93 9.33006C54.93 9.33006 48.12 15.5501 48.02 15.6101L48 15.6001Z" fill="white"/>
<path d="M0.5 29.79C0.5 23.2 0.5 16.6 0.5 10.01C0.5 5.31004 3.55 1.59004 8.16 0.690041C8.87 0.550041 9.62 0.540041 10.35 0.540041C23.15 0.540041 35.96 0.590041 48.76 0.500041C52.16 0.480041 55 1.51004 57.5 3.75004C60.66 6.57004 63.36 9.75004 65.14 13.63C65.69 14.83 65.94 16.08 65.94 17.42C65.92 30.56 65.94 43.7 65.93 56.84C65.93 61.32 63.03 64.98 58.68 66C58.04 66.15 57.37 66.22 56.71 66.22C43.41 66.23 30.11 66.22 16.8 66.23C15.48 66.23 14.28 65.82 13.13 65.24C8.77 63.06 5.19 59.95 2.32 56C0.999999 54.18 0.48 52.14 0.48 49.93C0.48 43.22 0.48 36.51 0.48 29.8L0.5 29.79Z" stroke="white" stroke-miterlimit="10"/>
</g>
<defs>
<clipPath id="clip0_412_35">
<rect width="66.45" height="66.72" fill="white"/>
</clipPath>
</defs>
</svg>
